<svg xmlns="http://www.w3.org/2000/svg" xmlns:xlink="http://www.w3.org/1999/xlink" contentStyleType="text/css" data-diagram-type="SEQUENCE" height="1293px" preserveAspectRatio="none" style="width:1404px;height:1293px;background:#FFFFFF;" version="1.1" viewBox="0 0 1404 1293" width="1404px" zoomAndPan="magnify"><title>Diagram sekwencji &#8212; Sprzeda&#380; karnetu (Epic 4)</title><defs/><g><text fill="#000000" font-family="Arial" font-size="14" font-weight="bold" lengthAdjust="spacing" textLength="329.5447" x="538.9782" y="29.9659">Diagram sekwencji &#8212; Sprzeda&#380; karnetu (Epic 4)</text><g><title>Administrator</title><rect fill="#000000" fill-opacity="0.00000" height="1080.3117" width="8" x="39.8378" y="121.0317"/><line style="stroke:#4338CA;stroke-width:0.5;stroke-dasharray:5.0,5.0;" x1="43" x2="43" y1="121.0317" y2="1201.3434"/></g><g><title>CzlonekView</title><rect fill="#000000" fill-opacity="0.00000" height="1080.3117" width="8" x="220.3117" y="121.0317"/><line style="stroke:#4338CA;stroke-width:0.5;stroke-dasharray:5.0,5.0;" x1="223.9224" x2="223.9224" y1="121.0317" y2="1201.3434"/></g><g><title>CzlonekController</title><rect fill="#000000" fill-opacity="0.00000" height="1080.3117" width="8" x="444.2243" y="121.0317"/><line style="stroke:#4338CA;stroke-width:0.5;stroke-dasharray:5.0,5.0;" x1="447.9806" x2="447.9806" y1="121.0317" y2="1201.3434"/></g><g><title>SprzedajKarnetDialog</title><rect fill="#000000" fill-opacity="0.00000" height="1080.3117" width="8" x="702.1596" y="121.0317"/><line style="stroke:#4338CA;stroke-width:0.5;stroke-dasharray:5.0,5.0;" x1="706.016" x2="706.016" y1="121.0317" y2="1201.3434"/></g><g><title>SprzedajKarnetDialogController</title><rect fill="#000000" fill-opacity="0.00000" height="1080.3117" width="8" x="943.122" y="121.0317"/><line style="stroke:#4338CA;stroke-width:0.5;stroke-dasharray:5.0,5.0;" x1="946.9801" x2="946.9801" y1="121.0317" y2="1201.3434"/></g><g><title>CzlonekRepository</title><rect fill="#000000" fill-opacity="0.00000" height="1080.3117" width="8" x="1197.8003" y="121.0317"/><line style="stroke:#4338CA;stroke-width:0.5;stroke-dasharray:5.0,5.0;" x1="1200.8792" x2="1200.8792" y1="121.0317" y2="1201.3434"/></g><g><title>czlonkowie.json</title><rect fill="#000000" fill-opacity="0.00000" height="1080.3117" width="8" x="1355.7684" y="121.0317"/><line style="stroke:#4338CA;stroke-width:0.5;stroke-dasharray:5.0,5.0;" x1="1359.0356" x2="1359.0356" y1="121.0317" y2="1201.3434"/></g><g class="participant participant-head" data-participant="Administrator"><text fill="#000000" font-family="Arial" font-size="11" lengthAdjust="spacing" textLength="71.6755" x="5" y="117.8087">Administrator</text><ellipse cx="43.8378" cy="54.5498" fill="#EEF2FF" rx="8" ry="8" style="stroke:#4338CA;stroke-width:0.5;"/><path d="M43.8378,62.5498 L43.8378,89.5498 M30.8378,70.5498 L56.8378,70.5498 M43.8378,89.5498 L30.8378,104.5498 M43.8378,89.5498 L56.8378,104.5498" fill="none" style="stroke:#4338CA;stroke-width:0.5;"/></g><g class="participant participant-tail" data-participant="Administrator"><text fill="#000000" font-family="Arial" font-size="11" lengthAdjust="spacing" textLength="71.6755" x="5" y="1212.1023">Administrator</text><ellipse cx="43.8378" cy="1223.8253" fill="#EEF2FF" rx="8" ry="8" style="stroke:#4338CA;stroke-width:0.5;"/><path d="M43.8378,1231.8253 L43.8378,1258.8253 M30.8378,1239.8253 L56.8378,1239.8253 M43.8378,1258.8253 L30.8378,1273.8253 M43.8378,1258.8253 L56.8378,1273.8253" fill="none" style="stroke:#4338CA;stroke-width:0.5;"/></g><g class="participant participant-head" data-participant="View"><text fill="#000000" font-family="Arial" font-size="11" lengthAdjust="spacing" textLength="64.7785" x="188.9224" y="102.8268">CzlonekView</text><text fill="#000000" font-family="Arial" font-size="11" lengthAdjust="spacing" textLength="34.4957" x="204.0638" y="117.8087">(FXML)</text><path d="M203.8117,63.0679 L203.8117,87.0679 M203.8117,75.0679 L220.8117,75.0679" fill="none" style="stroke:#181818;stroke-width:0.5;"/><ellipse cx="232.8117" cy="75.0679" fill="#E2E2F0" rx="12" ry="12" style="stroke:#181818;stroke-width:0.5;"/></g><g class="participant participant-tail" data-participant="View"><text fill="#000000" font-family="Arial" font-size="11" lengthAdjust="spacing" textLength="64.7785" x="188.9224" y="1212.1023">CzlonekView</text><text fill="#000000" font-family="Arial" font-size="11" lengthAdjust="spacing" textLength="34.4957" x="204.0638" y="1227.0842">(FXML)</text><path d="M203.8117,1234.3072 L203.8117,1258.3072 M203.8117,1246.3072 L220.8117,1246.3072" fill="none" style="stroke:#181818;stroke-width:0.5;"/><ellipse cx="232.8117" cy="1246.3072" fill="#E2E2F0" rx="12" ry="12" style="stroke:#181818;stroke-width:0.5;"/></g><g class="participant participant-head" data-participant="Controller"><text fill="#000000" font-family="Arial" font-size="11" lengthAdjust="spacing" textLength="92.4873" x="398.9806" y="117.8087">CzlonekController</text><ellipse cx="448.2243" cy="90.0498" fill="#E2E2F0" rx="12" ry="12" style="stroke:#181818;stroke-width:0.5;"/><polygon fill="#181818" points="444.2243,78.0498,450.2243,73.0498,448.2243,78.0498,450.2243,83.0498,444.2243,78.0498" style="stroke:#181818;stroke-width:1;"/></g><g class="participant participant-tail" data-participant="Controller"><text fill="#000000" font-family="Arial" font-size="11" lengthAdjust="spacing" textLength="92.4873" x="398.9806" y="1212.1023">CzlonekController</text><ellipse cx="448.2243" cy="1231.3253" fill="#E2E2F0" rx="12" ry="12" style="stroke:#181818;stroke-width:0.5;"/><polygon fill="#181818" points="444.2243,1219.3253,450.2243,1214.3253,448.2243,1219.3253,450.2243,1224.3253,444.2243,1219.3253" style="stroke:#181818;stroke-width:1;"/></g><g class="participant participant-head" data-participant="Dialog"><text fill="#000000" font-family="Arial" font-size="11" lengthAdjust="spacing" textLength="112.2872" x="647.016" y="102.8268">SprzedajKarnetDialog</text><text fill="#000000" font-family="Arial" font-size="11" lengthAdjust="spacing" textLength="34.4957" x="685.9117" y="117.8087">(FXML)</text><path d="M685.6596,63.0679 L685.6596,87.0679 M685.6596,75.0679 L702.6596,75.0679" fill="none" style="stroke:#181818;stroke-width:0.5;"/><ellipse cx="714.6596" cy="75.0679" fill="#E2E2F0" rx="12" ry="12" style="stroke:#181818;stroke-width:0.5;"/></g><g class="participant participant-tail" data-participant="Dialog"><text fill="#000000" font-family="Arial" font-size="11" lengthAdjust="spacing" textLength="112.2872" x="647.016" y="1212.1023">SprzedajKarnetDialog</text><text fill="#000000" font-family="Arial" font-size="11" lengthAdjust="spacing" textLength="34.4957" x="685.9117" y="1227.0842">(FXML)</text><path d="M685.6596,1234.3072 L685.6596,1258.3072 M685.6596,1246.3072 L702.6596,1246.3072" fill="none" style="stroke:#181818;stroke-width:0.5;"/><ellipse cx="714.6596" cy="1246.3072" fill="#E2E2F0" rx="12" ry="12" style="stroke:#181818;stroke-width:0.5;"/></g><g class="participant participant-head" data-participant="DialogCtrl"><text fill="#000000" font-family="Arial" font-size="11" lengthAdjust="spacing" textLength="164.2838" x="861.9801" y="117.8087">SprzedajKarnetDialogController</text><ellipse cx="947.122" cy="90.0498" fill="#E2E2F0" rx="12" ry="12" style="stroke:#181818;stroke-width:0.5;"/><polygon fill="#181818" points="943.122,78.0498,949.122,73.0498,947.122,78.0498,949.122,83.0498,943.122,78.0498" style="stroke:#181818;stroke-width:1;"/></g><g class="participant participant-tail" data-participant="DialogCtrl"><text fill="#000000" font-family="Arial" font-size="11" lengthAdjust="spacing" textLength="164.2838" x="861.9801" y="1212.1023">SprzedajKarnetDialogController</text><ellipse cx="947.122" cy="1231.3253" fill="#E2E2F0" rx="12" ry="12" style="stroke:#181818;stroke-width:0.5;"/><polygon fill="#181818" points="943.122,1219.3253,949.122,1214.3253,947.122,1219.3253,949.122,1224.3253,943.122,1219.3253" style="stroke:#181818;stroke-width:1;"/></g><g class="participant participant-head" data-participant="Repo"><text fill="#000000" font-family="Arial" font-size="11" lengthAdjust="spacing" textLength="95.8423" x="1150.8792" y="117.8087">CzlonekRepository</text><ellipse cx="1201.8003" cy="90.0498" fill="#E2E2F0" rx="12" ry="12" style="stroke:#181818;stroke-width:0.5;"/><line style="stroke:#181818;stroke-width:0.5;" x1="1189.8003" x2="1213.8003" y1="104.0498" y2="104.0498"/></g><g class="participant participant-tail" data-participant="Repo"><text fill="#000000" font-family="Arial" font-size="11" lengthAdjust="spacing" textLength="95.8423" x="1150.8792" y="1212.1023">CzlonekRepository</text><ellipse cx="1201.8003" cy="1231.3253" fill="#E2E2F0" rx="12" ry="12" style="stroke:#181818;stroke-width:0.5;"/><line style="stroke:#181818;stroke-width:0.5;" x1="1189.8003" x2="1213.8003" y1="1245.3253" y2="1245.3253"/></g><g class="participant participant-head" data-participant="File"><text fill="#000000" font-family="Arial" font-size="11" lengthAdjust="spacing" textLength="81.4654" x="1316.0356" y="102.8268">czlonkowie.json</text><text fill="#000000" font-family="Arial" font-size="11" lengthAdjust="spacing" textLength="63.6785" x="1324.9291" y="117.8087">karnety.json</text><path d="M1341.7684,55.0679 C1341.7684,45.0679 1359.7684,45.0679 1359.7684,45.0679 C1359.7684,45.0679 1377.7684,45.0679 1377.7684,55.0679 L1377.7684,81.0679 C1377.7684,91.0679 1359.7684,91.0679 1359.7684,91.0679 C1359.7684,91.0679 1341.7684,91.0679 1341.7684,81.0679 L1341.7684,55.0679" fill="#E2E2F0" style="stroke:#181818;stroke-width:1.5;"/><path d="M1341.7684,55.0679 C1341.7684,65.0679 1359.7684,65.0679 1359.7684,65.0679 C1359.7684,65.0679 1377.7684,65.0679 1377.7684,55.0679" fill="none" style="stroke:#181818;stroke-width:1.5;"/></g><g class="participant participant-tail" data-participant="File"><text fill="#000000" font-family="Arial" font-size="11" lengthAdjust="spacing" textLength="81.4654" x="1316.0356" y="1212.1023">czlonkowie.json</text><text fill="#000000" font-family="Arial" font-size="11" lengthAdjust="spacing" textLength="63.6785" x="1324.9291" y="1227.0842">karnety.json</text><path d="M1341.7684,1240.3072 C1341.7684,1230.3072 1359.7684,1230.3072 1359.7684,1230.3072 C1359.7684,1230.3072 1377.7684,1230.3072 1377.7684,1240.3072 L1377.7684,1266.3072 C1377.7684,1276.3072 1359.7684,1276.3072 1359.7684,1276.3072 C1359.7684,1276.3072 1341.7684,1276.3072 1341.7684,1266.3072 L1341.7684,1240.3072" fill="#E2E2F0" style="stroke:#181818;stroke-width:1.5;"/><path d="M1341.7684,1240.3072 C1341.7684,1250.3072 1359.7684,1250.3072 1359.7684,1250.3072 C1359.7684,1250.3072 1377.7684,1250.3072 1377.7684,1240.3072" fill="none" style="stroke:#181818;stroke-width:1.5;"/></g><g class="message" data-participant-1="Administrator" data-participant-2="View"><polygon fill="#374151" points="212.3117,148.0136,222.3117,152.0136,212.3117,156.0136,216.3117,152.0136" style="stroke:#374151;stroke-width:1;"/><line style="stroke:#374151;stroke-width:1.5;" x1="43.8378" x2="218.3117" y1="152.0136" y2="152.0136"/><text fill="#000000" font-family="Arial" font-size="11" lengthAdjust="spacing" textLength="126.0151" x="71.0672" y="146.7906">kliknie "Sprzedaj karnet"</text></g><g class="message" data-participant-1="View" data-participant-2="Controller"><polygon fill="#374151" points="436.2243,176.9955,446.2243,180.9955,436.2243,184.9955,440.2243,180.9955" style="stroke:#374151;stroke-width:1;"/><line style="stroke:#374151;stroke-width:1.5;" x1="224.3117" x2="442.2243" y1="180.9955" y2="180.9955"/><text fill="#000000" font-family="Arial" font-size="11" lengthAdjust="spacing" textLength="99.0433" x="286.7463" y="175.7725">onSprzedajKarnet()</text></g><g class="message" data-participant-1="Controller" data-participant-2="Dialog"><polygon fill="#374151" points="694.1596,220.9592,704.1596,224.9592,694.1596,228.9592,698.1596,224.9592" style="stroke:#374151;stroke-width:1;"/><line style="stroke:#374151;stroke-width:1.5;" x1="448.2243" x2="700.1596" y1="224.9592" y2="224.9592"/><text fill="#000000" font-family="Arial" font-size="11" lengthAdjust="spacing" textLength="222.9134" x="465.7352" y="204.7544">new Stage(Modality.APPLICATION_MODAL)</text><text fill="#000000" font-family="Arial" font-size="11" lengthAdjust="spacing" textLength="233.9353" x="460.2243" y="219.7363">FXMLLoader.load(SprzedajKarnetDialog.fxml)</text></g><g class="message" data-participant-1="Dialog" data-participant-2="DialogCtrl"><polygon fill="#374151" points="935.122,249.9411,945.122,253.9411,935.122,257.9411,939.122,253.9411" style="stroke:#374151;stroke-width:1;"/><line style="stroke:#374151;stroke-width:1.5;" x1="706.1596" x2="941.122" y1="253.9411" y2="253.9411"/><text fill="#000000" font-family="Arial" font-size="11" lengthAdjust="spacing" textLength="49.1037" x="802.089" y="248.7182">initialize()</text></g><g class="message" data-participant-1="DialogCtrl" data-participant-2="Repo"><polygon fill="#374151" points="1189.8003,278.923,1199.8003,282.923,1189.8003,286.923,1193.8003,282.923" style="stroke:#374151;stroke-width:1;"/><line style="stroke:#374151;stroke-width:1.5;" x1="947.122" x2="1195.8003" y1="282.923" y2="282.923"/><text fill="#000000" font-family="Arial" font-size="11" lengthAdjust="spacing" textLength="39.4897" x="1054.7163" y="277.7">findAll()</text></g><g class="message" data-participant-1="Repo" data-participant-2="DialogCtrl"><polygon fill="#374151" points="958.122,307.9049,948.122,311.9049,958.122,315.9049,954.122,311.9049" style="stroke:#374151;stroke-width:1;"/><line style="stroke:#374151;stroke-width:1.5;stroke-dasharray:2.0,2.0;" x1="952.122" x2="1200.8003" y1="311.9049" y2="311.9049"/><text fill="#000000" font-family="Arial" font-size="11" lengthAdjust="spacing" textLength="70.9165" x="1039.0029" y="306.6819">List&lt;Czlonek&gt;</text></g><g class="message" data-participant-1="DialogCtrl" data-participant-2="Dialog"><polygon fill="#374151" points="717.1596,366.8506,707.1596,370.8506,717.1596,374.8506,713.1596,370.8506" style="stroke:#374151;stroke-width:1;"/><line style="stroke:#374151;stroke-width:1.5;" x1="711.1596" x2="946.122" y1="370.8506" y2="370.8506"/><text fill="#000000" font-family="Arial" font-size="11" lengthAdjust="spacing" textLength="165.4828" x="743.8994" y="335.6638">wype&#322;nia ComboBox cz&#322;onkowie</text><text fill="#000000" font-family="Arial" font-size="11" lengthAdjust="spacing" textLength="133.1761" x="760.0528" y="350.6457">dataOd = LocalDate.now()</text><text fill="#000000" font-family="Arial" font-size="11" lengthAdjust="spacing" textLength="130.591" x="761.3453" y="365.6276">renderuje mini-kalendarz</text></g><g class="message" data-participant-1="Administrator" data-participant-2="Dialog"><polygon fill="#374151" points="694.1596,425.7962,704.1596,429.7962,694.1596,433.7962,698.1596,429.7962" style="stroke:#374151;stroke-width:1;"/><line style="stroke:#374151;stroke-width:1.5;" x1="43.8378" x2="700.1596" y1="429.7962" y2="429.7962"/><text fill="#000000" font-family="Arial" font-size="11" lengthAdjust="spacing" textLength="85.3704" x="332.3135" y="394.6095">wybiera cz&#322;onka,</text><text fill="#000000" font-family="Arial" font-size="11" lengthAdjust="spacing" textLength="78.3085" x="335.8444" y="409.5914">rodzaj karnetu,</text><text fill="#000000" font-family="Arial" font-size="11" lengthAdjust="spacing" textLength="86.7014" x="331.648" y="424.5733">dat&#281; rozpocz&#281;cia</text></g><g class="message" data-participant-1="Dialog" data-participant-2="DialogCtrl"><polygon fill="#374151" points="935.122,454.7781,945.122,458.7781,935.122,462.7781,939.122,458.7781" style="stroke:#374151;stroke-width:1;"/><line style="stroke:#374151;stroke-width:1.5;" x1="706.1596" x2="941.122" y1="458.7781" y2="458.7781"/><text fill="#000000" font-family="Arial" font-size="11" lengthAdjust="spacing" textLength="216.9624" x="718.1596" y="453.5551">onRodzajChanged() / onDataOdChanged()</text></g><g class="message" data-participant-1="DialogCtrl" data-participant-2="DialogCtrl"><line style="stroke:#374151;stroke-width:1.5;" x1="947.122" x2="989.122" y1="487.76" y2="487.76"/><line style="stroke:#374151;stroke-width:1.5;" x1="989.122" x2="989.122" y1="487.76" y2="500.76"/><line style="stroke:#374151;stroke-width:1.5;" x1="948.122" x2="989.122" y1="500.76" y2="500.76"/><polygon fill="#374151" points="958.122,496.76,948.122,500.76,958.122,504.76,954.122,500.76" style="stroke:#374151;stroke-width:1;"/><text fill="#000000" font-family="Arial" font-size="11" lengthAdjust="spacing" textLength="151.557" x="954.122" y="482.537">obliczDataDo(rodzaj, dataOd)</text></g><path d="M952,513.76 L952,567.76 L1096,567.76 L1096,523.76 L1086,513.76 L952,513.76" fill="#FEF9C3" style="stroke:#CA8A04;stroke-width:0.5;"/><path d="M1086,513.76 L1086,523.76 L1096,523.76 L1086,513.76" fill="#FEF9C3" style="stroke:#CA8A04;stroke-width:0.5;"/><text fill="#000000" font-family="Arial" font-size="11" lengthAdjust="spacing" textLength="120.0861" x="958" y="530.5189">MIESI&#280;CZNY  -&gt; +30 dni</text><text fill="#000000" font-family="Arial" font-size="11" lengthAdjust="spacing" textLength="123.8151" x="958" y="545.5008">KWARTALNY   -&gt; +90 dni</text><text fill="#000000" font-family="Arial" font-size="11" lengthAdjust="spacing" textLength="117.5452" x="958" y="560.4827">ROCZNY      -&gt; +365 dni</text><g class="message" data-participant-1="DialogCtrl" data-participant-2="Dialog"><polygon fill="#374151" points="717.1596,590.6876,707.1596,594.6876,717.1596,598.6876,713.1596,594.6876" style="stroke:#374151;stroke-width:1;"/><line style="stroke:#374151;stroke-width:1.5;" x1="711.1596" x2="946.122" y1="594.6876" y2="594.6876"/><text fill="#000000" font-family="Arial" font-size="11" lengthAdjust="spacing" textLength="121.6152" x="765.8332" y="589.4646">aktualizuje pole dataDo</text></g><g class="message" data-participant-1="Administrator" data-participant-2="Dialog"><polygon fill="#374151" points="694.1596,619.6694,704.1596,623.6694,694.1596,627.6694,698.1596,623.6694" style="stroke:#374151;stroke-width:1;"/><line style="stroke:#374151;stroke-width:1.5;" x1="43.8378" x2="700.1596" y1="623.6694" y2="623.6694"/><text fill="#000000" font-family="Arial" font-size="11" lengthAdjust="spacing" textLength="89.5944" x="330.2015" y="618.4465">kliknie "Sprzedaj"</text></g><g class="message" data-participant-1="Dialog" data-participant-2="DialogCtrl"><polygon fill="#374151" points="935.122,648.6513,945.122,652.6513,935.122,656.6513,939.122,652.6513" style="stroke:#374151;stroke-width:1;"/><line style="stroke:#374151;stroke-width:1.5;" x1="706.1596" x2="941.122" y1="652.6513" y2="652.6513"/><text fill="#000000" font-family="Arial" font-size="11" lengthAdjust="spacing" textLength="64.5475" x="794.367" y="647.4284">onSprzedaj()</text></g><g class="message" data-participant-1="DialogCtrl" data-participant-2="DialogCtrl"><line style="stroke:#374151;stroke-width:1.5;" x1="947.122" x2="989.122" y1="681.6332" y2="681.6332"/><line style="stroke:#374151;stroke-width:1.5;" x1="989.122" x2="989.122" y1="681.6332" y2="694.6332"/><line style="stroke:#374151;stroke-width:1.5;" x1="948.122" x2="989.122" y1="694.6332" y2="694.6332"/><polygon fill="#374151" points="958.122,690.6332,948.122,694.6332,958.122,698.6332,954.122,694.6332" style="stroke:#374151;stroke-width:1;"/><text fill="#000000" font-family="Arial" font-size="11" lengthAdjust="spacing" textLength="240.6783" x="954.122" y="676.4102">new Karnet(czlonekId, rodzaj, dataOd, dataDo)</text></g><g class="message" data-participant-1="DialogCtrl" data-participant-2="Repo"><polygon fill="#374151" points="1189.8003,719.6151,1199.8003,723.6151,1189.8003,727.6151,1193.8003,723.6151" style="stroke:#374151;stroke-width:1;"/><line style="stroke:#374151;stroke-width:1.5;" x1="947.122" x2="1195.8003" y1="723.6151" y2="723.6151"/><text fill="#000000" font-family="Arial" font-size="11" lengthAdjust="spacing" textLength="97.8883" x="1025.517" y="718.3921">saveKarnet(karnet)</text></g><g class="message" data-participant-1="Repo" data-participant-2="Repo"><line style="stroke:#374151;stroke-width:1.5;" x1="1201.8003" x2="1243.8003" y1="752.597" y2="752.597"/><line style="stroke:#374151;stroke-width:1.5;" x1="1243.8003" x2="1243.8003" y1="752.597" y2="765.597"/><line style="stroke:#374151;stroke-width:1.5;" x1="1202.8003" x2="1243.8003" y1="765.597" y2="765.597"/><polygon fill="#374151" points="1212.8003,761.597,1202.8003,765.597,1212.8003,769.597,1208.8003,765.597" style="stroke:#374151;stroke-width:1;"/><text fill="#000000" font-family="Arial" font-size="11" lengthAdjust="spacing" textLength="63.9535" x="1208.8003" y="747.374">generateId()</text></g><g class="message" data-participant-1="Repo" data-participant-2="Repo"><line style="stroke:#374151;stroke-width:1.5;" x1="1201.8003" x2="1243.8003" y1="794.5789" y2="794.5789"/><line style="stroke:#374151;stroke-width:1.5;" x1="1243.8003" x2="1243.8003" y1="794.5789" y2="807.5789"/><line style="stroke:#374151;stroke-width:1.5;" x1="1202.8003" x2="1243.8003" y1="807.5789" y2="807.5789"/><polygon fill="#374151" points="1212.8003,803.5789,1202.8003,807.5789,1212.8003,811.5789,1208.8003,807.5789" style="stroke:#374151;stroke-width:1;"/><text fill="#000000" font-family="Arial" font-size="11" lengthAdjust="spacing" textLength="132.648" x="1208.8003" y="789.3559">cacheKarnety.add(karnet)</text></g><g class="message" data-participant-1="Repo" data-participant-2="File"><polygon fill="#374151" points="1347.7684,832.5608,1357.7684,836.5608,1347.7684,840.5608,1351.7684,836.5608" style="stroke:#374151;stroke-width:1;"/><line style="stroke:#374151;stroke-width:1.5;" x1="1201.8003" x2="1353.7684" y1="836.5608" y2="836.5608"/><text fill="#000000" font-family="Arial" font-size="11" lengthAdjust="spacing" textLength="133.968" x="1213.8003" y="831.3378">saveToFile() [karnety.json]</text></g><g class="message" data-participant-1="File" data-participant-2="Repo"><polygon fill="#374151" points="1212.8003,861.5427,1202.8003,865.5427,1212.8003,869.5427,1208.8003,865.5427" style="stroke:#374151;stroke-width:1;"/><line style="stroke:#374151;stroke-width:1.5;stroke-dasharray:2.0,2.0;" x1="1206.8003" x2="1358.7684" y1="865.5427" y2="865.5427"/><text fill="#000000" font-family="Arial" font-size="11" lengthAdjust="spacing" textLength="15.3999" x="1273.0844" y="860.3197">OK</text></g><g class="message" data-participant-1="Repo" data-participant-2="DialogCtrl"><polygon fill="#374151" points="958.122,890.5246,948.122,894.5246,958.122,898.5246,954.122,894.5246" style="stroke:#374151;stroke-width:1;"/><line style="stroke:#374151;stroke-width:1.5;stroke-dasharray:2.0,2.0;" x1="952.122" x2="1200.8003" y1="894.5246" y2="894.5246"/><text fill="#000000" font-family="Arial" font-size="11" lengthAdjust="spacing" textLength="21.8458" x="1063.5383" y="889.3016">void</text></g><g class="message" data-participant-1="DialogCtrl" data-participant-2="Dialog"><polygon fill="#374151" points="717.1596,919.5064,707.1596,923.5064,717.1596,927.5064,713.1596,923.5064" style="stroke:#374151;stroke-width:1;"/><line style="stroke:#374151;stroke-width:1.5;" x1="711.1596" x2="946.122" y1="923.5064" y2="923.5064"/><text fill="#000000" font-family="Arial" font-size="11" lengthAdjust="spacing" textLength="140.414" x="756.4338" y="918.2835">closeDialog() [stage.close()]</text></g><g class="message" data-participant-1="Dialog" data-participant-2="Controller"><polygon fill="#374151" points="459.2243,948.4883,449.2243,952.4883,459.2243,956.4883,455.2243,952.4883" style="stroke:#374151;stroke-width:1;"/><line style="stroke:#374151;stroke-width:1.5;stroke-dasharray:2.0,2.0;" x1="453.2243" x2="705.1596" y1="952.4883" y2="952.4883"/><text fill="#000000" font-family="Arial" font-size="11" lengthAdjust="spacing" textLength="163.0078" x="495.688" y="947.2654">showAndWait() zwraca kontrol&#281;</text></g><g class="message" data-participant-1="Controller" data-participant-2="Repo"><polygon fill="#374151" points="1189.8003,977.4702,1199.8003,981.4702,1189.8003,985.4702,1193.8003,981.4702" style="stroke:#374151;stroke-width:1;"/><line style="stroke:#374151;stroke-width:1.5;" x1="448.2243" x2="1195.8003" y1="981.4702" y2="981.4702"/><text fill="#000000" font-family="Arial" font-size="11" lengthAdjust="spacing" textLength="39.4897" x="805.2674" y="976.2472">findAll()</text></g><g class="message" data-participant-1="Repo" data-participant-2="Controller"><polygon fill="#374151" points="459.2243,1006.4521,449.2243,1010.4521,459.2243,1014.4521,455.2243,1010.4521" style="stroke:#374151;stroke-width:1;"/><line style="stroke:#374151;stroke-width:1.5;stroke-dasharray:2.0,2.0;" x1="453.2243" x2="1200.8003" y1="1010.4521" y2="1010.4521"/><text fill="#000000" font-family="Arial" font-size="11" lengthAdjust="spacing" textLength="70.9165" x="789.5541" y="1005.2291">List&lt;Czlonek&gt;</text></g><g class="message" data-participant-1="Controller" data-participant-2="Repo"><polygon fill="#374151" points="1189.8003,1035.434,1199.8003,1039.434,1189.8003,1043.434,1193.8003,1039.434" style="stroke:#374151;stroke-width:1;"/><line style="stroke:#374151;stroke-width:1.5;" x1="448.2243" x2="1195.8003" y1="1039.434" y2="1039.434"/><text fill="#000000" font-family="Arial" font-size="11" lengthAdjust="spacing" textLength="154.1309" x="747.9469" y="1034.211">findAktywnyKarnet(czlonekId)</text></g><g class="message" data-participant-1="Repo" data-participant-2="Controller"><polygon fill="#374151" points="459.2243,1064.4159,449.2243,1068.4159,459.2243,1072.4159,455.2243,1068.4159" style="stroke:#374151;stroke-width:1;"/><line style="stroke:#374151;stroke-width:1.5;stroke-dasharray:2.0,2.0;" x1="453.2243" x2="1200.8003" y1="1068.4159" y2="1068.4159"/><text fill="#000000" font-family="Arial" font-size="11" lengthAdjust="spacing" textLength="91.7063" x="779.1591" y="1063.1929">Optional&lt;Karnet&gt;</text></g><g class="message" data-participant-1="Controller" data-participant-2="Controller"><line style="stroke:#374151;stroke-width:1.5;" x1="448.2243" x2="490.2243" y1="1097.3978" y2="1097.3978"/><line style="stroke:#374151;stroke-width:1.5;" x1="490.2243" x2="490.2243" y1="1097.3978" y2="1110.3978"/><line style="stroke:#374151;stroke-width:1.5;" x1="449.2243" x2="490.2243" y1="1110.3978" y2="1110.3978"/><polygon fill="#374151" points="459.2243,1106.3978,449.2243,1110.3978,459.2243,1114.3978,455.2243,1110.3978" style="stroke:#374151;stroke-width:1;"/><text fill="#000000" font-family="Arial" font-size="11" lengthAdjust="spacing" textLength="43.9447" x="455.2243" y="1092.1748">refresh()</text></g><g class="message" data-participant-1="Controller" data-participant-2="View"><polygon fill="#374151" points="235.3117,1135.3797,225.3117,1139.3797,235.3117,1143.3797,231.3117,1139.3797" style="stroke:#374151;stroke-width:1;"/><line style="stroke:#374151;stroke-width:1.5;" x1="229.3117" x2="447.2243" y1="1139.3797" y2="1139.3797"/><text fill="#000000" font-family="Arial" font-size="11" lengthAdjust="spacing" textLength="199.9126" x="236.3117" y="1134.1567">updateTable(cz&#322;onkowie, karnetStatus)</text></g><g class="message" data-participant-1="View" data-participant-2="Administrator"><polygon fill="#374151" points="54.8378,1179.3434,44.8378,1183.3434,54.8378,1187.3434,50.8378,1183.3434" style="stroke:#374151;stroke-width:1;"/><line style="stroke:#374151;stroke-width:1.5;stroke-dasharray:2.0,2.0;" x1="48.8378" x2="223.3117" y1="1183.3434" y2="1183.3434"/><text fill="#000000" font-family="Arial" font-size="11" lengthAdjust="spacing" textLength="156.4739" x="55.8378" y="1163.1386">wy&#347;wietla zaktualizowan&#261; list&#281;</text><text fill="#000000" font-family="Arial" font-size="11" lengthAdjust="spacing" textLength="105.3903" x="81.3796" y="1178.1205">ze statusem karnetu</text></g><!--SRC=[bLRTZjf65BxtKnnjBs8KGfV2vgzf90UmX9PTejrLqv-Dgi4UODR3Z3iUri5Lf2fItw0NNVLLSic-I9-aPyO6R61BoWKmPywSyyrtldDipJIdq6LaeiWC4XgbL0Gt3Fxv_K-uZ5L6GtB_6IAY1DLpS7in2w1TSvmaOY8cvan8nsJEjI-5FYSp2fvYXE_VlsGPXMQpj9dGN-UOa9xH924Jwd4s4H1GeQagUIcQn58aAwytbClKKqgceDMSbi7WjsO1YudGy9i3y8O4qKJ9kGWxaai5N_Lw_ZU-RtQa2gaghErMwtd7Gwj1MTYQf3bk1Sx7KdGIQDpv_t4_xhcn3MClKVYsdhMR9ysLyMhAWaZWVQ7PE47ZW8tfW0cw7_PwTmVMSU-PXTLbjmmFxZZuntxNRvSSol6RJxrMkmfVI4ttC-3t_1UTrZO37U-vTzp644vEdXVEc629LWHNpiYS9se1HvsCIq6ZxnbDhuNh_t0sg1q1IS0Od02heYHVUtNoDQVA-coMpYCZPIud87NAg29Y0JSaaY0JESB_bnhb0ncSoP1mfXSDx-tRGR_ZNVM7vx-S3RlUe0IfaF_DgHL_7hU2BJTjqEqxi0MrC6h57HGv8bZVwOB6Cc58oi8wcgKJ4ar69A5m51YdIEAT6ZU95DSYxyY5NTa3FkFO2HLwuSbhon_advSGSHO9HZT8YyO-Safk-C5p6znuJehgrLmS08zWfnWhqb4aAGKP2GapGxGmbEyZfp7-CEDEAK2UkoXXZbaWC5isz-6YrQw5gSf04XHUW-EF-s2wcbCANyvdYeBva3wDQvnKxihLxkIkfYnhEiTCX1xdw5So6x_jc0EioAk2hjUxGIltJHSnlVya6C4Ip4RoZVm0GNR_gQZ-jJ2Q68Rm7GnaG7YNQDf0kbsaG561rv_VK30QU18HJesIipsgsCeuibKhqf0wXf9XjbR7l6wpBkz0oIoMGRQy2nWvGACK5pP6Pqh4X8Pk3Rv6MzU2NziUec8LOyHPa9apNUdcaEgGtny5Q2UHOfEf1ZakDnR0MRztsL_-rVdf_4SRzN7h64B1SEVqdNTnvGsCtMwyM6rS37Fl0iVZrjCJkuCKsfdd72WRYVJSgCRG7qjyf8OMzY7kTphow22lAq_JXF_DdscTec63N7pzi0vL8ki5q4DQJyWjBMBbgjWH_TQ12HKeAatxeNl8DI31j0Y-Q90mV3Y36N8LI5VIc51TFvS7udkdv5Wqv2RMInYU7khOMyb2P_CqoSXi4H58sFBkstrpBxp_6vlp_ZE1b8KoEg2LWCk4vXQ3F37JhM6DRktzTlstPt4onNSV4RuZ3CSmPAaY0O4ezrZUxGxJBvvObIpLYVK5GIEzICLYMsq7ymnZpQGW_5L-Sa-gYhkYOtmNd2B-7R_AWsuUewhf5HcXDahJirvCD7oUw7bIstxgOPHgjvhPQ2khEK4D52qkKoAMVm17j-NTjS1NsiJ6exFLm7J-1G00]--></g></svg>