<?xml version="1.0" encoding="us-ascii" standalone="no"?><svg xmlns="http://www.w3.org/2000/svg" xmlns:xlink="http://www.w3.org/1999/xlink" contentStyleType="text/css" height="651px" preserveAspectRatio="none" style="width:907px;height:651px;background:#FFFFFF;" version="1.1" viewBox="0 0 907 651" width="907px" zoomAndPan="magnify"><defs/><g><text fill="#000000" font-family="Arial" font-size="14" font-weight="bold" lengthAdjust="spacing" textLength="310" x="291.75" y="22.9951">Diagram klas &#8212; warstwa modelu (POJO)</text><!--class StatusSali--><g id="elem_StatusSali"><rect codeLine="27" fill="#EEF2FF" height="82.4141" id="StatusSali" rx="2.5" ry="2.5" style="stroke:#4338CA;stroke-width:1.5;" width="86" x="371" y="562.2969"/><rect fill="#C7D2FE" height="28" rx="2.5" ry="2.5" style="stroke:#C7D2FE;stroke-width:1.5;" width="86" x="371" y="562.2969"/><rect fill="#C7D2FE" height="2.5" style="stroke:#C7D2FE;stroke-width:1.5;" width="86" x="371" y="587.7969"/><rect codeLine="27" fill="none" height="82.4141" id="StatusSali" rx="2.5" ry="2.5" style="stroke:#4338CA;stroke-width:1.5;" width="86" x="371" y="562.2969"/><ellipse cx="384" cy="576.2969" fill="#EB937F" rx="9" ry="9" style="stroke:#181818;stroke-width:1.0;"/><path d="M385.8906,580.2969 L380.9063,580.2969 L380.9063,572.2813 L385.8906,572.2813 L385.8906,573.6719 L382.4844,573.6719 L382.4844,575.4063 L385.5781,575.4063 L385.5781,576.7969 L382.4844,576.7969 L382.4844,578.9063 L385.8906,578.9063 L385.8906,580.2969 Z " fill="#000000"/><text fill="#1A1F3C" font-family="Arial" font-size="11" lengthAdjust="spacing" textLength="58" x="396" y="580.105">StatusSali</text><line style="stroke:#4338CA;stroke-width:1.5;" x1="372" x2="456" y1="590.2969" y2="590.2969"/><text fill="#000000" font-family="Arial" font-size="11" lengthAdjust="spacing" textLength="61" x="377" y="604.5073">DOSTEPNA</text><text fill="#000000" font-family="Arial" font-size="11" lengthAdjust="spacing" textLength="40" x="377" y="617.312">ZAJETA</text><text fill="#000000" font-family="Arial" font-size="11" lengthAdjust="spacing" textLength="73" x="377" y="630.1167">W_REMONCIE</text><line style="stroke:#4338CA;stroke-width:1.5;" x1="372" x2="456" y1="636.7109" y2="636.7109"/></g><!--class StatusKarnetu--><g id="elem_StatusKarnetu"><rect codeLine="33" fill="#EEF2FF" height="82.4141" id="StatusKarnetu" rx="2.5" ry="2.5" style="stroke:#4338CA;stroke-width:1.5;" width="119" x="781.5" y="89.2969"/><rect fill="#C7D2FE" height="28" rx="2.5" ry="2.5" style="stroke:#C7D2FE;stroke-width:1.5;" width="119" x="781.5" y="89.2969"/><rect fill="#C7D2FE" height="2.5" style="stroke:#C7D2FE;stroke-width:1.5;" width="119" x="781.5" y="114.7969"/><rect codeLine="33" fill="none" height="82.4141" id="StatusKarnetu" rx="2.5" ry="2.5" style="stroke:#4338CA;stroke-width:1.5;" width="119" x="781.5" y="89.2969"/><ellipse cx="799" cy="103.2969" fill="#EB937F" rx="9" ry="9" style="stroke:#181818;stroke-width:1.0;"/><path d="M800.8906,107.2969 L795.9063,107.2969 L795.9063,99.2813 L800.8906,99.2813 L800.8906,100.6719 L797.4844,100.6719 L797.4844,102.4063 L800.5781,102.4063 L800.5781,103.7969 L797.4844,103.7969 L797.4844,105.9063 L800.8906,105.9063 L800.8906,107.2969 Z " fill="#000000"/><text fill="#1A1F3C" font-family="Arial" font-size="11" lengthAdjust="spacing" textLength="81" x="812" y="107.105">StatusKarnetu</text><line style="stroke:#4338CA;stroke-width:1.5;" x1="782.5" x2="899.5" y1="117.2969" y2="117.2969"/><text fill="#000000" font-family="Arial" font-size="11" lengthAdjust="spacing" textLength="52" x="787.5" y="131.5073">AKTYWNY</text><text fill="#000000" font-family="Arial" font-size="11" lengthAdjust="spacing" textLength="46" x="787.5" y="144.312">WYGASL</text><text fill="#000000" font-family="Arial" font-size="11" lengthAdjust="spacing" textLength="107" x="787.5" y="157.1167">WYGASA_WKROTCE</text><line style="stroke:#4338CA;stroke-width:1.5;" x1="782.5" x2="899.5" y1="163.7109" y2="163.7109"/></g><!--class RodzajKarnetu--><g id="elem_RodzajKarnetu"><rect codeLine="39" fill="#EEF2FF" height="82.4141" id="RodzajKarnetu" rx="2.5" ry="2.5" style="stroke:#4338CA;stroke-width:1.5;" width="108" x="705" y="348.2969"/><rect fill="#C7D2FE" height="28" rx="2.5" ry="2.5" style="stroke:#C7D2FE;stroke-width:1.5;" width="108" x="705" y="348.2969"/><rect fill="#C7D2FE" height="2.5" style="stroke:#C7D2FE;stroke-width:1.5;" width="108" x="705" y="373.7969"/><rect codeLine="39" fill="none" height="82.4141" id="RodzajKarnetu" rx="2.5" ry="2.5" style="stroke:#4338CA;stroke-width:1.5;" width="108" x="705" y="348.2969"/><ellipse cx="718" cy="362.2969" fill="#EB937F" rx="9" ry="9" style="stroke:#181818;stroke-width:1.0;"/><path d="M719.8906,366.2969 L714.9063,366.2969 L714.9063,358.2813 L719.8906,358.2813 L719.8906,359.6719 L716.4844,359.6719 L716.4844,361.4063 L719.5781,361.4063 L719.5781,362.7969 L716.4844,362.7969 L716.4844,364.9063 L719.8906,364.9063 L719.8906,366.2969 Z " fill="#000000"/><text fill="#1A1F3C" font-family="Arial" font-size="11" lengthAdjust="spacing" textLength="80" x="730" y="366.105">RodzajKarnetu</text><line style="stroke:#4338CA;stroke-width:1.5;" x1="706" x2="812" y1="376.2969" y2="376.2969"/><text fill="#000000" font-family="Arial" font-size="11" lengthAdjust="spacing" textLength="69" x="711" y="390.5073">MIESI&#280;CZNY</text><text fill="#000000" font-family="Arial" font-size="11" lengthAdjust="spacing" textLength="65" x="711" y="403.312">KWARTALNY</text><text fill="#000000" font-family="Arial" font-size="11" lengthAdjust="spacing" textLength="48" x="711" y="416.1167">ROCZNY</text><line style="stroke:#4338CA;stroke-width:1.5;" x1="706" x2="812" y1="422.7109" y2="422.7109"/></g><!--class RodzajZajec--><g id="elem_RodzajZajec"><rect codeLine="45" fill="#EEF2FF" height="82.4141" id="RodzajZajec" rx="2.5" ry="2.5" style="stroke:#4338CA;stroke-width:1.5;" width="96" x="7" y="348.2969"/><rect fill="#C7D2FE" height="28" rx="2.5" ry="2.5" style="stroke:#C7D2FE;stroke-width:1.5;" width="96" x="7" y="348.2969"/><rect fill="#C7D2FE" height="2.5" style="stroke:#C7D2FE;stroke-width:1.5;" width="96" x="7" y="373.7969"/><rect codeLine="45" fill="none" height="82.4141" id="RodzajZajec" rx="2.5" ry="2.5" style="stroke:#4338CA;stroke-width:1.5;" width="96" x="7" y="348.2969"/><ellipse cx="20" cy="362.2969" fill="#EB937F" rx="9" ry="9" style="stroke:#181818;stroke-width:1.0;"/><path d="M21.8906,366.2969 L16.9063,366.2969 L16.9063,358.2813 L21.8906,358.2813 L21.8906,359.6719 L18.4844,359.6719 L18.4844,361.4063 L21.5781,361.4063 L21.5781,362.7969 L18.4844,362.7969 L18.4844,364.9063 L21.8906,364.9063 L21.8906,366.2969 Z " fill="#000000"/><text fill="#1A1F3C" font-family="Arial" font-size="11" lengthAdjust="spacing" textLength="68" x="32" y="366.105">RodzajZajec</text><line style="stroke:#4338CA;stroke-width:1.5;" x1="8" x2="102" y1="376.2969" y2="376.2969"/><text fill="#000000" font-family="Arial" font-size="11" lengthAdjust="spacing" textLength="56" x="13" y="390.5073">GRUPOWE</text><text fill="#000000" font-family="Arial" font-size="11" lengthAdjust="spacing" textLength="74" x="13" y="403.312">PERSONALNE</text><text fill="#000000" font-family="Arial" font-size="11" lengthAdjust="spacing" textLength="41" x="13" y="416.1167">ONLINE</text><line style="stroke:#4338CA;stroke-width:1.5;" x1="8" x2="102" y1="422.7109" y2="422.7109"/></g><!--class Trener--><g id="elem_Trener"><rect codeLine="53" fill="#EEF2FF" height="197.6563" id="Trener" rx="2.5" ry="2.5" style="stroke:#4338CA;stroke-width:1.5;" width="175" x="138.5" y="290.2969"/><rect fill="#C7D2FE" height="28" rx="2.5" ry="2.5" style="stroke:#C7D2FE;stroke-width:1.5;" width="175" x="138.5" y="290.2969"/><rect fill="#C7D2FE" height="2.5" style="stroke:#C7D2FE;stroke-width:1.5;" width="175" x="138.5" y="315.7969"/><rect codeLine="53" fill="none" height="197.6563" id="Trener" rx="2.5" ry="2.5" style="stroke:#4338CA;stroke-width:1.5;" width="175" x="138.5" y="290.2969"/><ellipse cx="203.25" cy="304.2969" fill="#ADD1B2" rx="9" ry="9" style="stroke:#181818;stroke-width:1.0;"/><path d="M204.5625,308.0625 Q204.1875,308.2656 203.7656,308.3594 Q203.3594,308.4531 202.8906,308.4531 Q201.2813,308.4531 200.4219,307.3906 Q199.5625,306.3125 199.5625,304.2969 Q199.5625,302.2656 200.4219,301.2031 Q201.2813,300.125 202.8906,300.125 Q203.3594,300.125 203.7656,300.2344 Q204.1875,300.3281 204.5625,300.5156 L204.5625,302.2813 Q204.1406,301.9063 203.75,301.7344 Q203.375,301.5625 202.9688,301.5625 Q202.1094,301.5625 201.6563,302.25 Q201.2188,302.9375 201.2188,304.2969 Q201.2188,305.6563 201.6563,306.3438 Q202.1094,307.0313 202.9688,307.0313 Q203.375,307.0313 203.75,306.8594 Q204.1406,306.6875 204.5625,306.2969 L204.5625,308.0625 Z " fill="#000000"/><text fill="#1A1F3C" font-family="Arial" font-size="11" lengthAdjust="spacing" textLength="38" x="220.75" y="308.105">Trener</text><line style="stroke:#4338CA;stroke-width:1.5;" x1="139.5" x2="312.5" y1="318.2969" y2="318.2969"/><text fill="#000000" font-family="Arial" font-size="11" lengthAdjust="spacing" textLength="52" x="144.5" y="332.5073">-String id</text><text fill="#000000" font-family="Arial" font-size="11" lengthAdjust="spacing" textLength="66" x="144.5" y="345.312">-String imie</text><text fill="#000000" font-family="Arial" font-size="11" lengthAdjust="spacing" textLength="93" x="144.5" y="358.1167">-String nazwisko</text><text fill="#000000" font-family="Arial" font-size="11" lengthAdjust="spacing" textLength="73" x="144.5" y="370.9214">-String email</text><text fill="#000000" font-family="Arial" font-size="11" lengthAdjust="spacing" textLength="81" x="144.5" y="383.7261">-String telefon</text><text fill="#000000" font-family="Arial" font-size="11" lengthAdjust="spacing" textLength="144" x="144.5" y="396.5308">-LocalDate dataUrodzenia</text><text fill="#000000" font-family="Arial" font-size="11" lengthAdjust="spacing" textLength="113" x="144.5" y="409.3354">-String specjalizacja</text><text fill="#000000" font-family="Arial" font-size="11" lengthAdjust="spacing" textLength="59" x="144.5" y="422.1401">-String bio</text><text fill="#000000" font-family="Arial" font-size="11" lengthAdjust="spacing" textLength="98" x="144.5" y="434.9448">-boolean aktywny</text><line style="stroke:#4338CA;stroke-width:1.0;" x1="139.5" x2="312.5" y1="441.5391" y2="441.5391"/><text fill="#000000" font-family="Arial" font-size="11" lengthAdjust="spacing" textLength="149" x="144.5" y="455.7495">+String getImieNazwisko()</text><text fill="#000000" font-family="Arial" font-size="11" lengthAdjust="spacing" textLength="121" x="144.5" y="468.5542">+boolean isAktywny()</text><text fill="#000000" font-family="Arial" font-size="11" lengthAdjust="spacing" textLength="163" x="144.5" y="481.3589">+void setAktywny(boolean a)</text></g><!--class Sala--><g id="elem_Sala"><rect codeLine="69" fill="#EEF2FF" height="133.6328" id="Sala" rx="2.5" ry="2.5" style="stroke:#4338CA;stroke-width:1.5;" width="130" x="349" y="322.2969"/><rect fill="#C7D2FE" height="28" rx="2.5" ry="2.5" style="stroke:#C7D2FE;stroke-width:1.5;" width="130" x="349" y="322.2969"/><rect fill="#C7D2FE" height="2.5" style="stroke:#C7D2FE;stroke-width:1.5;" width="130" x="349" y="347.7969"/><rect codeLine="69" fill="none" height="133.6328" id="Sala" rx="2.5" ry="2.5" style="stroke:#4338CA;stroke-width:1.5;" width="130" x="349" y="322.2969"/><ellipse cx="397.75" cy="336.2969" fill="#ADD1B2" rx="9" ry="9" style="stroke:#181818;stroke-width:1.0;"/><path d="M399.0625,340.0625 Q398.6875,340.2656 398.2656,340.3594 Q397.8594,340.4531 397.3906,340.4531 Q395.7813,340.4531 394.9219,339.3906 Q394.0625,338.3125 394.0625,336.2969 Q394.0625,334.2656 394.9219,333.2031 Q395.7813,332.125 397.3906,332.125 Q397.8594,332.125 398.2656,332.2344 Q398.6875,332.3281 399.0625,332.5156 L399.0625,334.2813 Q398.6406,333.9063 398.25,333.7344 Q397.875,333.5625 397.4688,333.5625 Q396.6094,333.5625 396.1563,334.25 Q395.7188,334.9375 395.7188,336.2969 Q395.7188,337.6563 396.1563,338.3438 Q396.6094,339.0313 397.4688,339.0313 Q397.875,339.0313 398.25,338.8594 Q398.6406,338.6875 399.0625,338.2969 L399.0625,340.0625 Z " fill="#000000"/><text fill="#1A1F3C" font-family="Arial" font-size="11" lengthAdjust="spacing" textLength="25" x="415.25" y="340.105">Sala</text><line style="stroke:#4338CA;stroke-width:1.5;" x1="350" x2="478" y1="350.2969" y2="350.2969"/><text fill="#000000" font-family="Arial" font-size="11" lengthAdjust="spacing" textLength="52" x="355" y="364.5073">-String id</text><text fill="#000000" font-family="Arial" font-size="11" lengthAdjust="spacing" textLength="77" x="355" y="377.312">-String nazwa</text><text fill="#000000" font-family="Arial" font-size="11" lengthAdjust="spacing" textLength="62" x="355" y="390.1167">-String kod</text><text fill="#000000" font-family="Arial" font-size="11" lengthAdjust="spacing" textLength="59" x="355" y="402.9214">-String typ</text><text fill="#000000" font-family="Arial" font-size="11" lengthAdjust="spacing" textLength="84" x="355" y="415.7261">-int pojemnosc</text><text fill="#000000" font-family="Arial" font-size="11" lengthAdjust="spacing" textLength="118" x="355" y="428.5308">-int minPrzerwaMinut</text><text fill="#000000" font-family="Arial" font-size="11" lengthAdjust="spacing" textLength="102" x="355" y="441.3354">-StatusSali status</text><line style="stroke:#4338CA;stroke-width:1.5;" x1="350" x2="478" y1="447.9297" y2="447.9297"/></g><!--class Zajecia--><g id="elem_Zajecia"><rect codeLine="79" fill="#EEF2FF" height="172.0469" id="Zajecia" rx="2.5" ry="2.5" style="stroke:#4338CA;stroke-width:1.5;" width="206" x="244" y="44.2969"/><rect fill="#C7D2FE" height="28" rx="2.5" ry="2.5" style="stroke:#C7D2FE;stroke-width:1.5;" width="206" x="244" y="44.2969"/><rect fill="#C7D2FE" height="2.5" style="stroke:#C7D2FE;stroke-width:1.5;" width="206" x="244" y="69.7969"/><rect codeLine="79" fill="none" height="172.0469" id="Zajecia" rx="2.5" ry="2.5" style="stroke:#4338CA;stroke-width:1.5;" width="206" x="244" y="44.2969"/><ellipse cx="322.25" cy="58.2969" fill="#ADD1B2" rx="9" ry="9" style="stroke:#181818;stroke-width:1.0;"/><path d="M323.5625,62.0625 Q323.1875,62.2656 322.7656,62.3594 Q322.3594,62.4531 321.8906,62.4531 Q320.2813,62.4531 319.4219,61.3906 Q318.5625,60.3125 318.5625,58.2969 Q318.5625,56.2656 319.4219,55.2031 Q320.2813,54.125 321.8906,54.125 Q322.3594,54.125 322.7656,54.2344 Q323.1875,54.3281 323.5625,54.5156 L323.5625,56.2813 Q323.1406,55.9063 322.75,55.7344 Q322.375,55.5625 321.9688,55.5625 Q321.1094,55.5625 320.6563,56.25 Q320.2188,56.9375 320.2188,58.2969 Q320.2188,59.6563 320.6563,60.3438 Q321.1094,61.0313 321.9688,61.0313 Q322.375,61.0313 322.75,60.8594 Q323.1406,60.6875 323.5625,60.2969 L323.5625,62.0625 Z " fill="#000000"/><text fill="#1A1F3C" font-family="Arial" font-size="11" lengthAdjust="spacing" textLength="42" x="339.75" y="62.105">Zajecia</text><line style="stroke:#4338CA;stroke-width:1.5;" x1="245" x2="449" y1="72.2969" y2="72.2969"/><text fill="#000000" font-family="Arial" font-size="11" lengthAdjust="spacing" textLength="52" x="250" y="86.5073">-String id</text><text fill="#000000" font-family="Arial" font-size="11" lengthAdjust="spacing" textLength="77" x="250" y="99.312">-String nazwa</text><text fill="#000000" font-family="Arial" font-size="11" lengthAdjust="spacing" textLength="110" x="250" y="112.1167">-RodzajZajec rodzaj</text><text fill="#000000" font-family="Arial" font-size="11" lengthAdjust="spacing" textLength="87" x="250" y="124.9214">-String trenerId</text><text fill="#000000" font-family="Arial" font-size="11" lengthAdjust="spacing" textLength="76" x="250" y="137.7261">-String salaId</text><text fill="#000000" font-family="Arial" font-size="11" lengthAdjust="spacing" textLength="128" x="250" y="150.5308">-LocalDateTime termin</text><text fill="#000000" font-family="Arial" font-size="11" lengthAdjust="spacing" textLength="122" x="250" y="163.3354">-int czasTrwaniaMinut</text><text fill="#000000" font-family="Arial" font-size="11" lengthAdjust="spacing" textLength="115" x="250" y="176.1401">-int limitUczestnikow</text><text fill="#000000" font-family="Arial" font-size="11" lengthAdjust="spacing" textLength="155" x="250" y="188.9448">-List&lt;String&gt; uczestnicyIds</text><line style="stroke:#4338CA;stroke-width:1.0;" x1="245" x2="449" y1="195.5391" y2="195.5391"/><text fill="#000000" font-family="Arial" font-size="11" lengthAdjust="spacing" textLength="194" x="250" y="209.7495">+boolean czyKonflikt(Zajecia inne)</text></g><!--class Czlonek--><g id="elem_Czlonek"><rect codeLine="93" fill="#EEF2FF" height="120.8281" id="Czlonek" rx="2.5" ry="2.5" style="stroke:#4338CA;stroke-width:1.5;" width="156" x="514" y="328.7969"/><rect fill="#C7D2FE" height="28" rx="2.5" ry="2.5" style="stroke:#C7D2FE;stroke-width:1.5;" width="156" x="514" y="328.7969"/><rect fill="#C7D2FE" height="2.5" style="stroke:#C7D2FE;stroke-width:1.5;" width="156" x="514" y="354.2969"/><rect codeLine="93" fill="none" height="120.8281" id="Czlonek" rx="2.5" ry="2.5" style="stroke:#4338CA;stroke-width:1.5;" width="156" x="514" y="328.7969"/><ellipse cx="566.75" cy="342.7969" fill="#ADD1B2" rx="9" ry="9" style="stroke:#181818;stroke-width:1.0;"/><path d="M568.0625,346.5625 Q567.6875,346.7656 567.2656,346.8594 Q566.8594,346.9531 566.3906,346.9531 Q564.7813,346.9531 563.9219,345.8906 Q563.0625,344.8125 563.0625,342.7969 Q563.0625,340.7656 563.9219,339.7031 Q564.7813,338.625 566.3906,338.625 Q566.8594,338.625 567.2656,338.7344 Q567.6875,338.8281 568.0625,339.0156 L568.0625,340.7813 Q567.6406,340.4063 567.25,340.2344 Q566.875,340.0625 566.4688,340.0625 Q565.6094,340.0625 565.1563,340.75 Q564.7188,341.4375 564.7188,342.7969 Q564.7188,344.1563 565.1563,344.8438 Q565.6094,345.5313 566.4688,345.5313 Q566.875,345.5313 567.25,345.3594 Q567.6406,345.1875 568.0625,344.7969 L568.0625,346.5625 Z " fill="#000000"/><text fill="#1A1F3C" font-family="Arial" font-size="11" lengthAdjust="spacing" textLength="43" x="584.25" y="346.605">Czlonek</text><line style="stroke:#4338CA;stroke-width:1.5;" x1="515" x2="669" y1="356.7969" y2="356.7969"/><text fill="#000000" font-family="Arial" font-size="11" lengthAdjust="spacing" textLength="52" x="520" y="371.0073">-String id</text><text fill="#000000" font-family="Arial" font-size="11" lengthAdjust="spacing" textLength="66" x="520" y="383.812">-String imie</text><text fill="#000000" font-family="Arial" font-size="11" lengthAdjust="spacing" textLength="93" x="520" y="396.6167">-String nazwisko</text><text fill="#000000" font-family="Arial" font-size="11" lengthAdjust="spacing" textLength="73" x="520" y="409.4214">-String email</text><text fill="#000000" font-family="Arial" font-size="11" lengthAdjust="spacing" textLength="81" x="520" y="422.2261">-String telefon</text><text fill="#000000" font-family="Arial" font-size="11" lengthAdjust="spacing" textLength="144" x="520" y="435.0308">-LocalDate dataUrodzenia</text><line style="stroke:#4338CA;stroke-width:1.5;" x1="515" x2="669" y1="441.625" y2="441.625"/></g><!--class Karnet--><g id="elem_Karnet"><rect codeLine="102" fill="#EEF2FF" height="146.4375" id="Karnet" rx="2.5" ry="2.5" style="stroke:#4338CA;stroke-width:1.5;" width="197" x="549.5" y="57.2969"/><rect fill="#C7D2FE" height="28" rx="2.5" ry="2.5" style="stroke:#C7D2FE;stroke-width:1.5;" width="197" x="549.5" y="57.2969"/><rect fill="#C7D2FE" height="2.5" style="stroke:#C7D2FE;stroke-width:1.5;" width="197" x="549.5" y="82.7969"/><rect codeLine="102" fill="none" height="146.4375" id="Karnet" rx="2.5" ry="2.5" style="stroke:#4338CA;stroke-width:1.5;" width="197" x="549.5" y="57.2969"/><ellipse cx="625.75" cy="71.2969" fill="#ADD1B2" rx="9" ry="9" style="stroke:#181818;stroke-width:1.0;"/><path d="M627.0625,75.0625 Q626.6875,75.2656 626.2656,75.3594 Q625.8594,75.4531 625.3906,75.4531 Q623.7813,75.4531 622.9219,74.3906 Q622.0625,73.3125 622.0625,71.2969 Q622.0625,69.2656 622.9219,68.2031 Q623.7813,67.125 625.3906,67.125 Q625.8594,67.125 626.2656,67.2344 Q626.6875,67.3281 627.0625,67.5156 L627.0625,69.2813 Q626.6406,68.9063 626.25,68.7344 Q625.875,68.5625 625.4688,68.5625 Q624.6094,68.5625 624.1563,69.25 Q623.7188,69.9375 623.7188,71.2969 Q623.7188,72.6563 624.1563,73.3438 Q624.6094,74.0313 625.4688,74.0313 Q625.875,74.0313 626.25,73.8594 Q626.6406,73.6875 627.0625,73.2969 L627.0625,75.0625 Z " fill="#000000"/><text fill="#1A1F3C" font-family="Arial" font-size="11" lengthAdjust="spacing" textLength="37" x="643.25" y="75.105">Karnet</text><line style="stroke:#4338CA;stroke-width:1.5;" x1="550.5" x2="745.5" y1="85.2969" y2="85.2969"/><text fill="#000000" font-family="Arial" font-size="11" lengthAdjust="spacing" textLength="52" x="555.5" y="99.5073">-String id</text><text fill="#000000" font-family="Arial" font-size="11" lengthAdjust="spacing" textLength="93" x="555.5" y="112.312">-String czlonekId</text><text fill="#000000" font-family="Arial" font-size="11" lengthAdjust="spacing" textLength="122" x="555.5" y="125.1167">-RodzajKarnetu rodzaj</text><text fill="#000000" font-family="Arial" font-size="11" lengthAdjust="spacing" textLength="136" x="555.5" y="137.9214">-String metodaPlatnosci</text><text fill="#000000" font-family="Arial" font-size="11" lengthAdjust="spacing" textLength="104" x="555.5" y="150.7261">-LocalDate dataOd</text><text fill="#000000" font-family="Arial" font-size="11" lengthAdjust="spacing" textLength="103" x="555.5" y="163.5308">-LocalDate dataDo</text><line style="stroke:#4338CA;stroke-width:1.0;" x1="550.5" x2="745.5" y1="170.125" y2="170.125"/><text fill="#000000" font-family="Arial" font-size="11" lengthAdjust="spacing" textLength="157" x="555.5" y="184.3354">+StatusKarnetu getStatus()</text><text fill="#000000" font-family="Arial" font-size="11" lengthAdjust="spacing" textLength="185" x="555.5" y="197.1401">+boolean wygasaWCiagu(int dni)</text></g><!--link Sala to StatusSali--><g id="link_Sala_StatusSali"><path codeLine="116" d="M414,456.5069 C414,491.1269 414,526.3769 414,556.1569 " fill="none" id="Sala-to-StatusSali" style="stroke:#374151;stroke-width:1.5;"/><polygon fill="#374151" points="414,562.1569,418,553.1569,414,557.1569,410,553.1569,414,562.1569" style="stroke:#374151;stroke-width:1.5;"/><text fill="#000000" font-family="Arial" font-size="11" lengthAdjust="spacing" textLength="36" x="415" y="529.5073">status</text></g><!--link Zajecia to RodzajZajec--><g id="link_Zajecia_RodzajZajec"><path codeLine="117" d="M243.8,192.3569 C202.94,219.3669 157.18,253.3769 121,290.2969 C104.2,307.4369 92.1204,324.2805 80.5404,343.0505 " fill="none" id="Zajecia-to-RodzajZajec" style="stroke:#374151;stroke-width:1.5;"/><polygon fill="#374151" points="77.39,348.1569,85.5198,342.5975,80.0153,343.9015,78.7113,338.397,77.39,348.1569" style="stroke:#374151;stroke-width:1.5;"/><text fill="#000000" font-family="Arial" font-size="11" lengthAdjust="spacing" textLength="34" x="167" y="257.5073">rodzaj</text></g><!--link Karnet to RodzajKarnetu--><g id="link_Karnet_RodzajKarnetu"><path codeLine="118" d="M679.22,203.5669 C699.41,250.3369 722.5806,303.9688 739.2506,342.5588 " fill="none" id="Karnet-to-RodzajKarnetu" style="stroke:#374151;stroke-width:1.5;"/><polygon fill="#374151" points="741.63,348.0669,741.733,338.2186,739.6472,343.4768,734.3889,341.391,741.63,348.0669" style="stroke:#374151;stroke-width:1.5;"/><text fill="#000000" font-family="Arial" font-size="11" lengthAdjust="spacing" textLength="34" x="704" y="257.5073">rodzaj</text></g><!--link Zajecia to Trener--><g id="link_Zajecia_Trener"><path codeLine="120" d="M306.88,216.5169 C295.8,240.0369 286.2451,260.3281 274.8551,284.5281 " fill="none" id="Zajecia-to-Trener" style="stroke:#374151;stroke-width:1.5;"/><polygon fill="#374151" points="272.3,289.9569,279.7518,283.5171,274.4293,285.4329,272.5135,280.1103,272.3,289.9569" style="stroke:#374151;stroke-width:1.5;"/><text fill="#000000" font-family="Arial" font-size="11" lengthAdjust="spacing" textLength="50" x="292" y="257.5073">prowadzi</text><text fill="#000000" font-family="Arial" font-size="11" lengthAdjust="spacing" textLength="21" x="281.5298" y="234.685">0..*</text><text fill="#000000" font-family="Arial" font-size="11" lengthAdjust="spacing" textLength="7" x="268.7106" y="279.8188">1</text></g><!--link Zajecia to Sala--><g id="link_Zajecia_Sala"><path codeLine="121" d="M369.22,216.5169 C378.17,250.8569 386.8271,284.0507 395.2071,316.2107 " fill="none" id="Zajecia-to-Sala" style="stroke:#374151;stroke-width:1.5;"/><polygon fill="#374151" points="396.72,322.0169,398.3214,312.2991,395.4592,317.1784,390.5799,314.3163,396.72,322.0169" style="stroke:#374151;stroke-width:1.5;"/><text fill="#000000" font-family="Arial" font-size="11" lengthAdjust="spacing" textLength="77" x="382" y="257.5073">odbywa sie w</text><text fill="#000000" font-family="Arial" font-size="11" lengthAdjust="spacing" textLength="21" x="349.2272" y="234.685">0..*</text><text fill="#000000" font-family="Arial" font-size="11" lengthAdjust="spacing" textLength="7" x="387.3173" y="311.8221">1</text></g><!--link Karnet to Czlonek--><g id="link_Karnet_Czlonek"><path codeLine="122" d="M632.25,203.5669 C623.65,243.0569 614.3971,285.5144 606.2671,322.8344 " fill="none" id="Karnet-to-Czlonek" style="stroke:#374151;stroke-width:1.5;"/><polygon fill="#374151" points="604.99,328.6969,610.814,320.7545,606.0543,323.8115,602.9973,319.0517,604.99,328.6969" style="stroke:#374151;stroke-width:1.5;"/><text fill="#000000" font-family="Arial" font-size="11" lengthAdjust="spacing" textLength="53" x="622" y="257.5073">nalezy do</text><text fill="#000000" font-family="Arial" font-size="11" lengthAdjust="spacing" textLength="21" x="608.543" y="221.971">0..*</text><text fill="#000000" font-family="Arial" font-size="11" lengthAdjust="spacing" textLength="7" x="599.2652" y="318.0236">1</text></g><!--link Zajecia to Czlonek--><g id="link_Zajecia_Czlonek"><path codeLine="123" d="M438.41,216.4269 C448.53,226.3669 458.57,236.4669 468,246.2969 C493.14,272.5169 515.8819,298.1442 538.0119,323.9242 " fill="none" id="Zajecia-to-Czlonek" style="stroke:#374151;stroke-width:1.5;"/><polygon fill="#374151" points="541.92,328.4769,539.093,319.0425,538.6633,324.683,533.0227,324.2533,541.92,328.4769" style="stroke:#374151;stroke-width:1.5;"/><text fill="#000000" font-family="Arial" font-size="11" lengthAdjust="spacing" textLength="58" x="480" y="257.5073">uczestnicy</text><text fill="#000000" font-family="Arial" font-size="11" lengthAdjust="spacing" textLength="21" x="424.3632" y="234.5873">0..*</text><text fill="#000000" font-family="Arial" font-size="11" lengthAdjust="spacing" textLength="21" x="513.1582" y="318.1886">0..*</text></g><!--SRC=[rLRRRjiu47tNLn3PXqssQ13NQPi6HG6jBBUk4ykm5HZ9Ip6H9YuZYJH8QWLhiK0_eW_ze7v9lsH9wc8fTODzMmGmRFBC7CtXN6Wfgb8a8mfh0Hb9Kf3anvUlf00XLG4aup6cEJcS1n-38yUH2MKRC9unta6UgZ5dQWOP4bTGIFVRbxH4CXXqZ94E8rsb1BtD5KuYpgpFYVFGX_pj4F8dHCbQy9p57a-v8B_v_lZ5U6miNCGeQlHqE3ppN8r-GD3eJoplzUZ5s6_jHbbj6S3WRXXfopwiYX5-fb72K2iQ7Bzq_kde125uONNMpE7hqy7BWTx_ceCip_OVRUoFttZ3XqVpt3FtvFJNHnkF_5TdhWxX_4v-VFsYFyJN8L20efp96dkA7yUnkLegKBbSGafjsaR1ClJdCrFi6_UZ7vh5wjF2lmnctiGtUUYmfY0OgjmItMbulPfT6_Vhz-xoebcudrRJHH1wE-w2noNSTxcN4tyv-VxDkx7ywSfTXEw5NIy22_QfDt2FaIM-NrpDWvNflBc_M0OppJARO7OncVczebsQQQiw7vzirHod6jrG84DXC_1Sbq9GjYOqxkqoYjqzWxAWCk5T33EWQHTGcE8TPnQwu16a8r18Ob1m9NJYaL7ekiiDHlUwRqhGFrt3BQtYt7AU8Z02YTeMR6kmv_hhMUEtHZNHEcUrjiCZQsnOLBeLhyR_uZGc4bM3jay_CeMk4gFR61vBYqb3Jsh2UtQrtTWjPOfi-3rcZCkeHJBAvg94KS0bPRcgYUtuIBlSYR5jIl-Zdcvd2xlkwR85d_IuKf-rHjfYXLJ_NoWKMcchEYf1XbgphjvEjZ6akadKLLIYL8mclAWUHQLwMqLuH_BQ66qdiToLhybyL6wddDsbD567pM4fOzWfY5Ucd67olxHgAwAwQXxJ45KowtJsBwYVgv6XuZ7CKr2cFUWU4K6y1npnxWHqxqyz21NmO0IAxHeah3pz2f4VcfB5Z1xrhhK5fjKVqMUwUSBNcfrROhBphZjHX9mtKzNqb_7epehsg0jKLxdZqQItTMcVGWvEZe__EB2-1uC34xg-KxNpHhzrG5pInxmRmUU4nxTR_JOdAPAYrR27qKp2kMxm5CijYVd-0DLovxuRGkTV]--></g></svg>