<?xml version="1.0" encoding="us-ascii" standalone="no"?><svg xmlns="http://www.w3.org/2000/svg" xmlns:xlink="http://www.w3.org/1999/xlink" contentStyleType="text/css" height="675px" preserveAspectRatio="none" style="width:595px;height:675px;background:#FFFFFF;" version="1.1" viewBox="0 0 595 675" width="595px" zoomAndPan="magnify"><defs/><g><text fill="#000000" font-family="Arial" font-size="14" font-weight="bold" lengthAdjust="spacing" textLength="206" x="195.5" y="27.9951">Inicjalizacja i nawigowanie</text><rect fill="none" height="342.0703" style="stroke:#000000;stroke-width:1.5;" width="470" x="118" y="239.3203"/><line style="stroke:#4338CA;stroke-width:0.5;stroke-dasharray:5.0,5.0;" x1="46" x2="46" y1="115.1016" y2="598.3906"/><line style="stroke:#4338CA;stroke-width:0.5;stroke-dasharray:5.0,5.0;" x1="160" x2="160" y1="115.1016" y2="598.3906"/><line style="stroke:#4338CA;stroke-width:0.5;stroke-dasharray:5.0,5.0;" x1="291.5" x2="291.5" y1="115.1016" y2="598.3906"/><line style="stroke:#4338CA;stroke-width:0.5;stroke-dasharray:5.0,5.0;" x1="526" x2="526" y1="115.1016" y2="598.3906"/><text fill="#000000" font-family="Arial" font-size="11" lengthAdjust="spacing" textLength="77" x="5" y="112.5073">Administrator</text><ellipse cx="46.5" cy="50.7969" fill="#EEF2FF" rx="8" ry="8" style="stroke:#4338CA;stroke-width:0.5;"/><path d="M46.5,58.7969 L46.5,85.7969 M33.5,66.7969 L59.5,66.7969 M46.5,85.7969 L33.5,100.7969 M46.5,85.7969 L59.5,100.7969 " fill="none" style="stroke:#4338CA;stroke-width:0.5;"/><text fill="#000000" font-family="Arial" font-size="11" lengthAdjust="spacing" textLength="77" x="5" y="607.6011">Administrator</text><ellipse cx="46.5" cy="618.6953" fill="#EEF2FF" rx="8" ry="8" style="stroke:#4338CA;stroke-width:0.5;"/><path d="M46.5,626.6953 L46.5,653.6953 M33.5,634.6953 L59.5,634.6953 M46.5,653.6953 L33.5,668.6953 M46.5,653.6953 L59.5,668.6953 " fill="none" style="stroke:#4338CA;stroke-width:0.5;"/><rect fill="#EEF2FF" height="26.8047" rx="2.5" ry="2.5" style="stroke:#4338CA;stroke-width:0.5;" width="65" x="128" y="87.2969"/><text fill="#1A1F3C" font-family="Arial" font-size="11" lengthAdjust="spacing" textLength="51" x="135" y="104.5073">:Interfejs</text><rect fill="#EEF2FF" height="26.8047" rx="2.5" ry="2.5" style="stroke:#4338CA;stroke-width:0.5;" width="65" x="128" y="597.3906"/><text fill="#1A1F3C" font-family="Arial" font-size="11" lengthAdjust="spacing" textLength="51" x="135" y="614.6011">:Interfejs</text><rect fill="#EEF2FF" height="26.8047" rx="2.5" ry="2.5" style="stroke:#4338CA;stroke-width:0.5;" width="100" x="241.5" y="87.2969"/><text fill="#1A1F3C" font-family="Arial" font-size="11" lengthAdjust="spacing" textLength="86" x="248.5" y="104.5073">:MainController</text><rect fill="#EEF2FF" height="26.8047" rx="2.5" ry="2.5" style="stroke:#4338CA;stroke-width:0.5;" width="100" x="241.5" y="597.3906"/><text fill="#1A1F3C" font-family="Arial" font-size="11" lengthAdjust="spacing" textLength="86" x="248.5" y="614.6011">:MainController</text><rect fill="#EEF2FF" height="26.8047" rx="2.5" ry="2.5" style="stroke:#4338CA;stroke-width:0.5;" width="103" x="475" y="87.2969"/><text fill="#1A1F3C" font-family="Arial" font-size="11" lengthAdjust="spacing" textLength="89" x="482" y="104.5073">:BaseController</text><rect fill="#EEF2FF" height="26.8047" rx="2.5" ry="2.5" style="stroke:#4338CA;stroke-width:0.5;" width="103" x="475" y="597.3906"/><text fill="#1A1F3C" font-family="Arial" font-size="11" lengthAdjust="spacing" textLength="89" x="482" y="614.6011">:BaseController</text><polygon fill="#374151" points="148.5,139.9063,158.5,143.9063,148.5,147.9063,152.5,143.9063" style="stroke:#374151;stroke-width:1.0;"/><line style="stroke:#374151;stroke-width:1.5;" x1="46.5" x2="154.5" y1="143.9063" y2="143.9063"/><text fill="#000000" font-family="Arial" font-size="11" lengthAdjust="spacing" textLength="51" x="78" y="139.312">Uruchom</text><polygon fill="#374151" points="279.5,166.7109,289.5,170.7109,279.5,174.7109,283.5,170.7109" style="stroke:#374151;stroke-width:1.0;"/><line style="stroke:#374151;stroke-width:1.5;" x1="160.5" x2="285.5" y1="170.7109" y2="170.7109"/><text fill="#000000" font-family="Arial" font-size="11" lengthAdjust="spacing" textLength="53" x="199.5" y="166.1167">initialize()</text><polygon fill="#374151" points="514.5,193.5156,524.5,197.5156,514.5,201.5156,518.5,197.5156" style="stroke:#374151;stroke-width:1.0;"/><line style="stroke:#374151;stroke-width:1.5;" x1="291.5" x2="520.5" y1="197.5156" y2="197.5156"/><text fill="#000000" font-family="Arial" font-size="11" lengthAdjust="spacing" textLength="211" x="303.5" y="192.9214">setMainController(MainController mc)</text><polygon fill="#374151" points="148.5,220.3203,158.5,224.3203,148.5,228.3203,152.5,224.3203" style="stroke:#374151;stroke-width:1.0;"/><line style="stroke:#374151;stroke-width:1.5;" x1="46.5" x2="154.5" y1="224.3203" y2="224.3203"/><text fill="#000000" font-family="Arial" font-size="11" lengthAdjust="spacing" textLength="90" x="58.5" y="219.7261">Wybierz zak&#322;adki</text><path d="M118,239.3203 L180,239.3203 L180,244.125 L170,254.125 L118,254.125 L118,239.3203 " fill="#EEEEEE" style="stroke:#000000;stroke-width:1.5;"/><rect fill="none" height="342.0703" style="stroke:#000000;stroke-width:1.5;" width="470" x="118" y="239.3203"/><text fill="#000000" font-family="Arial" font-size="11" font-weight="bold" lengthAdjust="spacing" textLength="17" x="133" y="250.5308">alt</text><a href="Trenerzy" target="_top" title="Trenerzy" xlink:actuate="onRequest" xlink:href="Trenerzy" xlink:show="new" xlink:title="Trenerzy" xlink:type="simple"><text fill="#0000FF" font-family="Arial" font-size="11" font-weight="bold" lengthAdjust="spacing" text-decoration="underline" textLength="56" x="195" y="251.5308">Trenerzy</text></a><polygon fill="#374151" points="279.5,268.9297,289.5,272.9297,279.5,276.9297,283.5,272.9297" style="stroke:#374151;stroke-width:1.0;"/><line style="stroke:#374151;stroke-width:1.5;" x1="160.5" x2="285.5" y1="272.9297" y2="272.9297"/><text fill="#000000" font-family="Arial" font-size="11" lengthAdjust="spacing" textLength="102" x="175" y="268.3354">showTrenerView()</text><polygon fill="#374151" points="514.5,295.7344,524.5,299.7344,514.5,303.7344,518.5,299.7344" style="stroke:#374151;stroke-width:1.0;"/><line style="stroke:#374151;stroke-width:1.5;" x1="291.5" x2="520.5" y1="299.7344" y2="299.7344"/><text fill="#000000" font-family="Arial" font-size="11" lengthAdjust="spacing" textLength="50" x="384" y="295.1401">refresh()</text><line style="stroke:#000000;stroke-width:1.0;stroke-dasharray:2.0,2.0;" x1="118" x2="588" y1="308.7344" y2="308.7344"/><a href="Sale" target="_top" title="Sale" xlink:actuate="onRequest" xlink:href="Sale" xlink:show="new" xlink:title="Sale" xlink:type="simple"><text fill="#0000FF" font-family="Arial" font-size="11" font-weight="bold" lengthAdjust="spacing" text-decoration="underline" textLength="28" x="123" y="318.9448">Sale</text></a><polygon fill="#374151" points="279.5,337.3438,289.5,341.3438,279.5,345.3438,283.5,341.3438" style="stroke:#374151;stroke-width:1.0;"/><line style="stroke:#374151;stroke-width:1.5;" x1="160.5" x2="285.5" y1="341.3438" y2="341.3438"/><text fill="#000000" font-family="Arial" font-size="11" lengthAdjust="spacing" textLength="89" x="181.5" y="336.7495">showSalaView()</text><polygon fill="#374151" points="514.5,364.1484,524.5,368.1484,514.5,372.1484,518.5,368.1484" style="stroke:#374151;stroke-width:1.0;"/><line style="stroke:#374151;stroke-width:1.5;" x1="291.5" x2="520.5" y1="368.1484" y2="368.1484"/><text fill="#000000" font-family="Arial" font-size="11" lengthAdjust="spacing" textLength="50" x="384" y="363.5542">refresh()</text><line style="stroke:#000000;stroke-width:1.0;stroke-dasharray:2.0,2.0;" x1="118" x2="588" y1="377.1484" y2="377.1484"/><a href="Grafik" target="_top" title="Grafik" xlink:actuate="onRequest" xlink:href="Grafik" xlink:show="new" xlink:title="Grafik" xlink:type="simple"><text fill="#0000FF" font-family="Arial" font-size="11" font-weight="bold" lengthAdjust="spacing" text-decoration="underline" textLength="38" x="123" y="387.3589">Grafik</text></a><polygon fill="#374151" points="279.5,405.7578,289.5,409.7578,279.5,413.7578,283.5,409.7578" style="stroke:#374151;stroke-width:1.0;"/><line style="stroke:#374151;stroke-width:1.5;" x1="160.5" x2="285.5" y1="409.7578" y2="409.7578"/><text fill="#000000" font-family="Arial" font-size="11" lengthAdjust="spacing" textLength="98" x="177" y="405.1636">showGrafikView()</text><polygon fill="#374151" points="514.5,432.5625,524.5,436.5625,514.5,440.5625,518.5,436.5625" style="stroke:#374151;stroke-width:1.0;"/><line style="stroke:#374151;stroke-width:1.5;" x1="291.5" x2="520.5" y1="436.5625" y2="436.5625"/><text fill="#000000" font-family="Arial" font-size="11" lengthAdjust="spacing" textLength="50" x="384" y="431.9683">refresh()</text><line style="stroke:#000000;stroke-width:1.0;stroke-dasharray:2.0,2.0;" x1="118" x2="588" y1="445.5625" y2="445.5625"/><a href="Cz&#322;onkowie" target="_top" title="Cz&#322;onkowie" xlink:actuate="onRequest" xlink:href="Cz&#322;onkowie" xlink:show="new" xlink:title="Cz&#322;onkowie" xlink:type="simple"><text fill="#0000FF" font-family="Arial" font-size="11" font-weight="bold" lengthAdjust="spacing" text-decoration="underline" textLength="74" x="123" y="455.7729">Cz&#322;onkowie</text></a><polygon fill="#374151" points="279.5,474.1719,289.5,478.1719,279.5,482.1719,283.5,478.1719" style="stroke:#374151;stroke-width:1.0;"/><line style="stroke:#374151;stroke-width:1.5;" x1="160.5" x2="285.5" y1="478.1719" y2="478.1719"/><text fill="#000000" font-family="Arial" font-size="11" lengthAdjust="spacing" textLength="107" x="172.5" y="473.5776">showCzlonekView()</text><polygon fill="#374151" points="514.5,500.9766,524.5,504.9766,514.5,508.9766,518.5,504.9766" style="stroke:#374151;stroke-width:1.0;"/><line style="stroke:#374151;stroke-width:1.5;" x1="291.5" x2="520.5" y1="504.9766" y2="504.9766"/><text fill="#000000" font-family="Arial" font-size="11" lengthAdjust="spacing" textLength="50" x="384" y="500.3823">refresh()</text><line style="stroke:#000000;stroke-width:1.0;stroke-dasharray:2.0,2.0;" x1="118" x2="588" y1="513.9766" y2="513.9766"/><a href="Raporty" target="_top" title="Raporty" xlink:actuate="onRequest" xlink:href="Raporty" xlink:show="new" xlink:title="Raporty" xlink:type="simple"><text fill="#0000FF" font-family="Arial" font-size="11" font-weight="bold" lengthAdjust="spacing" text-decoration="underline" textLength="49" x="123" y="524.187">Raporty</text></a><polygon fill="#374151" points="279.5,542.5859,289.5,546.5859,279.5,550.5859,283.5,546.5859" style="stroke:#374151;stroke-width:1.0;"/><line style="stroke:#374151;stroke-width:1.5;" x1="160.5" x2="285.5" y1="546.5859" y2="546.5859"/><text fill="#000000" font-family="Arial" font-size="11" lengthAdjust="spacing" textLength="101" x="175.5" y="541.9917">showRaportView()</text><polygon fill="#374151" points="514.5,569.3906,524.5,573.3906,514.5,577.3906,518.5,573.3906" style="stroke:#374151;stroke-width:1.0;"/><line style="stroke:#374151;stroke-width:1.5;" x1="291.5" x2="520.5" y1="573.3906" y2="573.3906"/><text fill="#000000" font-family="Arial" font-size="11" lengthAdjust="spacing" textLength="50" x="384" y="568.7964">refresh()</text><!--SRC=[bLF1Jjj04BtxAqRqK3XGnNKeD8TAZeah9D93WVQ0UbZiSJBnPZVTNMF55HV-ZV_gs0dK3gwQ-c1httlxvisirv6J21UAaeMGL0d-084I9SrqAHIXvzcSr4eOiOGKCr585slbleWbGcX8o7x-YYe4ts-H5dyMg1ASehLYXg6acO84bKFJKXcqAwtiisgCKfUXCRe4PufE67uxIcWbb8DV7i1O9FdCw4AbaPRQm9l997uVnpMZJOfcYmw3u2mA6QrJRZ5V-5cGU0yjTv4uPlxVzw6duyQcQMAh3Kw7_ed_35xFASaLzml-knC6Bod3IrBO7_k5VHLhC3bjOftJFV76Lu9u49_7mvQWxUz_28DXDxxI3lid44_YZr6mEu4eF0i7GxRmDiCBqoKfiiu8NddjupeONTJ7dk727e2mS7EnGqy5gOZFnsWfqJIQQRIZ6GkBEvfnv7cTgd3yYSq1Hd1ZYcIkbrwz-lCmFOrgchSugYy07XvvRw5Rdza59iu2EOiouwNJWFTerc2Bk-FaHUZLPXttSUDkqNKT3tSAB9EZloR_lhuZD1LK8dzw56bEF5_fuFRQe69y_OFFWPMRLhZMdF-eXlf6M78tKEERA2E-NXdVi3d3A2t2xPMGs6F0iDXd-sSZCifx33R4FXPHzVIeLQvBwWiILL8htClegrXfu_h6iM7-uQ5IxpS0]--></g></svg>