<?xml version="1.0" encoding="us-ascii" standalone="no"?><svg xmlns="http://www.w3.org/2000/svg" xmlns:xlink="http://www.w3.org/1999/xlink" contentStyleType="text/css" height="831px" preserveAspectRatio="none" style="width:883px;height:831px;background:#FFFFFF;" version="1.1" viewBox="0 0 883 831" width="883px" zoomAndPan="magnify"><defs/><g><text fill="#000000" font-family="Arial" font-size="14" font-weight="bold" lengthAdjust="spacing" textLength="109" x="386.25" y="27.9951">Raportowanie</text><rect fill="none" height="136.8281" style="stroke:#000000;stroke-width:1.5;" width="231" x="97" y="599.9766"/><line style="stroke:#4338CA;stroke-width:0.5;stroke-dasharray:5.0,5.0;" x1="46" x2="46" y1="115.1016" y2="753.8047"/><line style="stroke:#4338CA;stroke-width:0.5;stroke-dasharray:5.0,5.0;" x1="150" x2="150" y1="115.1016" y2="753.8047"/><line style="stroke:#4338CA;stroke-width:0.5;stroke-dasharray:5.0,5.0;" x1="262" x2="262" y1="115.1016" y2="753.8047"/><line style="stroke:#4338CA;stroke-width:0.5;stroke-dasharray:5.0,5.0;" x1="451.5" x2="451.5" y1="115.1016" y2="753.8047"/><line style="stroke:#4338CA;stroke-width:0.5;stroke-dasharray:5.0,5.0;" x1="568.5" x2="568.5" y1="115.1016" y2="753.8047"/><line style="stroke:#4338CA;stroke-width:0.5;stroke-dasharray:5.0,5.0;" x1="688.5" x2="688.5" y1="115.1016" y2="753.8047"/><line style="stroke:#4338CA;stroke-width:0.5;stroke-dasharray:5.0,5.0;" x1="816.5" x2="816.5" y1="115.1016" y2="753.8047"/><text fill="#000000" font-family="Arial" font-size="11" lengthAdjust="spacing" textLength="77" x="5" y="112.5073">Administrator</text><ellipse cx="46.5" cy="50.7969" fill="#EEF2FF" rx="8" ry="8" style="stroke:#4338CA;stroke-width:0.5;"/><path d="M46.5,58.7969 L46.5,85.7969 M33.5,66.7969 L59.5,66.7969 M46.5,85.7969 L33.5,100.7969 M46.5,85.7969 L59.5,100.7969 " fill="none" style="stroke:#4338CA;stroke-width:0.5;"/><text fill="#000000" font-family="Arial" font-size="11" lengthAdjust="spacing" textLength="77" x="5" y="763.0151">Administrator</text><ellipse cx="46.5" cy="774.1094" fill="#EEF2FF" rx="8" ry="8" style="stroke:#4338CA;stroke-width:0.5;"/><path d="M46.5,782.1094 L46.5,809.1094 M33.5,790.1094 L59.5,790.1094 M46.5,809.1094 L33.5,824.1094 M46.5,809.1094 L59.5,824.1094 " fill="none" style="stroke:#4338CA;stroke-width:0.5;"/><rect fill="#EEF2FF" height="26.8047" rx="2.5" ry="2.5" style="stroke:#4338CA;stroke-width:0.5;" width="87" x="107" y="87.2969"/><text fill="#1A1F3C" font-family="Arial" font-size="11" lengthAdjust="spacing" textLength="73" x="114" y="104.5073">:WidokRaport</text><rect fill="#EEF2FF" height="26.8047" rx="2.5" ry="2.5" style="stroke:#4338CA;stroke-width:0.5;" width="87" x="107" y="752.8047"/><text fill="#1A1F3C" font-family="Arial" font-size="11" lengthAdjust="spacing" textLength="73" x="114" y="770.0151">:WidokRaport</text><rect fill="#EEF2FF" height="26.8047" rx="2.5" ry="2.5" style="stroke:#4338CA;stroke-width:0.5;" width="111" x="207" y="87.2969"/><text fill="#1A1F3C" font-family="Arial" font-size="11" lengthAdjust="spacing" textLength="97" x="214" y="104.5073">:RaportController</text><rect fill="#EEF2FF" height="26.8047" rx="2.5" ry="2.5" style="stroke:#4338CA;stroke-width:0.5;" width="111" x="207" y="752.8047"/><text fill="#1A1F3C" font-family="Arial" font-size="11" lengthAdjust="spacing" textLength="97" x="214" y="770.0151">:RaportController</text><rect fill="#EEF2FF" height="26.8047" rx="2.5" ry="2.5" style="stroke:#4338CA;stroke-width:0.5;" width="112" x="395.5" y="87.2969"/><text fill="#1A1F3C" font-family="Arial" font-size="11" lengthAdjust="spacing" textLength="98" x="402.5" y="104.5073">:GrafikRepository</text><rect fill="#EEF2FF" height="26.8047" rx="2.5" ry="2.5" style="stroke:#4338CA;stroke-width:0.5;" width="112" x="395.5" y="752.8047"/><text fill="#1A1F3C" font-family="Arial" font-size="11" lengthAdjust="spacing" textLength="98" x="402.5" y="770.0151">:GrafikRepository</text><rect fill="#EEF2FF" height="26.8047" rx="2.5" ry="2.5" style="stroke:#4338CA;stroke-width:0.5;" width="103" x="517.5" y="87.2969"/><text fill="#1A1F3C" font-family="Arial" font-size="11" lengthAdjust="spacing" textLength="89" x="524.5" y="104.5073">:SalaRepository</text><rect fill="#EEF2FF" height="26.8047" rx="2.5" ry="2.5" style="stroke:#4338CA;stroke-width:0.5;" width="103" x="517.5" y="752.8047"/><text fill="#1A1F3C" font-family="Arial" font-size="11" lengthAdjust="spacing" textLength="89" x="524.5" y="770.0151">:SalaRepository</text><rect fill="#EEF2FF" height="26.8047" rx="2.5" ry="2.5" style="stroke:#4338CA;stroke-width:0.5;" width="116" x="630.5" y="87.2969"/><text fill="#1A1F3C" font-family="Arial" font-size="11" lengthAdjust="spacing" textLength="102" x="637.5" y="104.5073">:TrenerRepository</text><rect fill="#EEF2FF" height="26.8047" rx="2.5" ry="2.5" style="stroke:#4338CA;stroke-width:0.5;" width="116" x="630.5" y="752.8047"/><text fill="#1A1F3C" font-family="Arial" font-size="11" lengthAdjust="spacing" textLength="102" x="637.5" y="770.0151">:TrenerRepository</text><rect fill="#EEF2FF" height="26.8047" rx="2.5" ry="2.5" style="stroke:#4338CA;stroke-width:0.5;" width="121" x="756.5" y="87.2969"/><text fill="#1A1F3C" font-family="Arial" font-size="11" lengthAdjust="spacing" textLength="107" x="763.5" y="104.5073">:CzlonekRepository</text><rect fill="#EEF2FF" height="26.8047" rx="2.5" ry="2.5" style="stroke:#4338CA;stroke-width:0.5;" width="121" x="756.5" y="752.8047"/><text fill="#1A1F3C" font-family="Arial" font-size="11" lengthAdjust="spacing" textLength="107" x="763.5" y="770.0151">:CzlonekRepository</text><polygon fill="#374151" points="138.5,139.9063,148.5,143.9063,138.5,147.9063,142.5,143.9063" style="stroke:#374151;stroke-width:1.0;"/><line style="stroke:#374151;stroke-width:1.5;" x1="46.5" x2="144.5" y1="143.9063" y2="143.9063"/><text fill="#000000" font-family="Arial" font-size="11" lengthAdjust="spacing" textLength="80" x="58.5" y="139.312">Pobierz raport</text><polygon fill="#374151" points="250.5,166.7109,260.5,170.7109,250.5,174.7109,254.5,170.7109" style="stroke:#374151;stroke-width:1.0;"/><line style="stroke:#374151;stroke-width:1.5;" x1="150.5" x2="256.5" y1="170.7109" y2="170.7109"/><text fill="#000000" font-family="Arial" font-size="11" lengthAdjust="spacing" textLength="50" x="181.5" y="166.1167">refresh()</text><line style="stroke:#374151;stroke-width:1.5;" x1="262.5" x2="304.5" y1="197.5156" y2="197.5156"/><line style="stroke:#374151;stroke-width:1.5;" x1="304.5" x2="304.5" y1="197.5156" y2="210.5156"/><line style="stroke:#374151;stroke-width:1.5;" x1="263.5" x2="304.5" y1="210.5156" y2="210.5156"/><polygon fill="#374151" points="273.5,206.5156,263.5,210.5156,273.5,214.5156,269.5,210.5156" style="stroke:#374151;stroke-width:1.0;"/><text fill="#000000" font-family="Arial" font-size="11" lengthAdjust="spacing" textLength="112" x="269.5" y="192.9214">obliczOblozenieSal()</text><polygon fill="#374151" points="439.5,233.3203,449.5,237.3203,439.5,241.3203,443.5,237.3203" style="stroke:#374151;stroke-width:1.0;"/><line style="stroke:#374151;stroke-width:1.5;" x1="262.5" x2="445.5" y1="237.3203" y2="237.3203"/><text fill="#000000" font-family="Arial" font-size="11" lengthAdjust="spacing" textLength="165" x="274.5" y="232.7261">findByTydzien(LocalDate pon)</text><polygon fill="#374151" points="273.5,260.125,263.5,264.125,273.5,268.125,269.5,264.125" style="stroke:#374151;stroke-width:1.0;"/><line style="stroke:#374151;stroke-width:1.5;stroke-dasharray:2.0,2.0;" x1="267.5" x2="450.5" y1="264.125" y2="264.125"/><text fill="#000000" font-family="Arial" font-size="11" lengthAdjust="spacing" textLength="20" x="347" y="259.5308">List</text><polygon fill="#374151" points="557,286.9297,567,290.9297,557,294.9297,561,290.9297" style="stroke:#374151;stroke-width:1.0;"/><line style="stroke:#374151;stroke-width:1.5;" x1="262.5" x2="563" y1="290.9297" y2="290.9297"/><text fill="#000000" font-family="Arial" font-size="11" lengthAdjust="spacing" textLength="42" x="394.75" y="286.3354">findAll()</text><polygon fill="#374151" points="273.5,313.7344,263.5,317.7344,273.5,321.7344,269.5,317.7344" style="stroke:#374151;stroke-width:1.0;"/><line style="stroke:#374151;stroke-width:1.5;stroke-dasharray:2.0,2.0;" x1="267.5" x2="568" y1="317.7344" y2="317.7344"/><text fill="#000000" font-family="Arial" font-size="11" lengthAdjust="spacing" textLength="23" x="404.25" y="313.1401">Map</text><line style="stroke:#374151;stroke-width:1.5;" x1="262.5" x2="304.5" y1="344.5391" y2="344.5391"/><line style="stroke:#374151;stroke-width:1.5;" x1="304.5" x2="304.5" y1="344.5391" y2="357.5391"/><line style="stroke:#374151;stroke-width:1.5;" x1="263.5" x2="304.5" y1="357.5391" y2="357.5391"/><polygon fill="#374151" points="273.5,353.5391,263.5,357.5391,273.5,361.5391,269.5,357.5391" style="stroke:#374151;stroke-width:1.0;"/><text fill="#000000" font-family="Arial" font-size="11" lengthAdjust="spacing" textLength="98" x="269.5" y="339.9448">obliczAktywnosc()</text><polygon fill="#374151" points="439.5,380.3438,449.5,384.3438,439.5,388.3438,443.5,384.3438" style="stroke:#374151;stroke-width:1.0;"/><line style="stroke:#374151;stroke-width:1.5;" x1="262.5" x2="445.5" y1="384.3438" y2="384.3438"/><text fill="#000000" font-family="Arial" font-size="11" lengthAdjust="spacing" textLength="42" x="336" y="379.7495">findAll()</text><polygon fill="#374151" points="273.5,407.1484,263.5,411.1484,273.5,415.1484,269.5,411.1484" style="stroke:#374151;stroke-width:1.0;"/><line style="stroke:#374151;stroke-width:1.5;stroke-dasharray:2.0,2.0;" x1="267.5" x2="450.5" y1="411.1484" y2="411.1484"/><text fill="#000000" font-family="Arial" font-size="11" lengthAdjust="spacing" textLength="20" x="347" y="406.5542">List</text><polygon fill="#374151" points="676.5,433.9531,686.5,437.9531,676.5,441.9531,680.5,437.9531" style="stroke:#374151;stroke-width:1.0;"/><line style="stroke:#374151;stroke-width:1.5;" x1="262.5" x2="682.5" y1="437.9531" y2="437.9531"/><text fill="#000000" font-family="Arial" font-size="11" lengthAdjust="spacing" textLength="42" x="454.5" y="433.3589">findAll()</text><polygon fill="#374151" points="273.5,460.7578,263.5,464.7578,273.5,468.7578,269.5,464.7578" style="stroke:#374151;stroke-width:1.0;"/><line style="stroke:#374151;stroke-width:1.5;stroke-dasharray:2.0,2.0;" x1="267.5" x2="687.5" y1="464.7578" y2="464.7578"/><text fill="#000000" font-family="Arial" font-size="11" lengthAdjust="spacing" textLength="23" x="464" y="460.1636">Map</text><line style="stroke:#374151;stroke-width:1.5;" x1="262.5" x2="304.5" y1="491.5625" y2="491.5625"/><line style="stroke:#374151;stroke-width:1.5;" x1="304.5" x2="304.5" y1="491.5625" y2="504.5625"/><line style="stroke:#374151;stroke-width:1.5;" x1="263.5" x2="304.5" y1="504.5625" y2="504.5625"/><polygon fill="#374151" points="273.5,500.5625,263.5,504.5625,273.5,508.5625,269.5,504.5625" style="stroke:#374151;stroke-width:1.0;"/><text fill="#000000" font-family="Arial" font-size="11" lengthAdjust="spacing" textLength="115" x="269.5" y="486.9683">pobierzWygasajace()</text><polygon fill="#374151" points="805,527.3672,815,531.3672,805,535.3672,809,531.3672" style="stroke:#374151;stroke-width:1.0;"/><line style="stroke:#374151;stroke-width:1.5;" x1="262.5" x2="811" y1="531.3672" y2="531.3672"/><text fill="#000000" font-family="Arial" font-size="11" lengthAdjust="spacing" textLength="173" x="453.25" y="526.7729">findKarnetyWygasajace(int dni)</text><polygon fill="#374151" points="273.5,554.1719,263.5,558.1719,273.5,562.1719,269.5,558.1719" style="stroke:#374151;stroke-width:1.0;"/><line style="stroke:#374151;stroke-width:1.5;stroke-dasharray:2.0,2.0;" x1="267.5" x2="816" y1="558.1719" y2="558.1719"/><text fill="#000000" font-family="Arial" font-size="11" lengthAdjust="spacing" textLength="20" x="529.75" y="553.5776">List</text><polygon fill="#374151" points="161.5,580.9766,151.5,584.9766,161.5,588.9766,157.5,584.9766" style="stroke:#374151;stroke-width:1.0;"/><line style="stroke:#374151;stroke-width:1.5;stroke-dasharray:2.0,2.0;" x1="155.5" x2="261.5" y1="584.9766" y2="584.9766"/><text fill="#000000" font-family="Arial" font-size="11" lengthAdjust="spacing" textLength="20" x="196.5" y="580.3823">List</text><path d="M97,599.9766 L159,599.9766 L159,604.7813 L149,614.7813 L97,614.7813 L97,599.9766 " fill="#EEEEEE" style="stroke:#000000;stroke-width:1.5;"/><rect fill="none" height="136.8281" style="stroke:#000000;stroke-width:1.5;" width="231" x="97" y="599.9766"/><text fill="#000000" font-family="Arial" font-size="11" font-weight="bold" lengthAdjust="spacing" textLength="17" x="112" y="611.187">alt</text><a href="Eksport" target="_top" title="Eksport" xlink:actuate="onRequest" xlink:href="Eksport" xlink:show="new" xlink:title="Eksport" xlink:type="simple"><text fill="#0000FF" font-family="Arial" font-size="11" font-weight="bold" lengthAdjust="spacing" text-decoration="underline" textLength="25" x="174" y="612.187">CSV</text></a><polygon fill="#374151" points="250.5,629.5859,260.5,633.5859,250.5,637.5859,254.5,633.5859" style="stroke:#374151;stroke-width:1.0;"/><line style="stroke:#374151;stroke-width:1.5;" x1="150.5" x2="256.5" y1="633.5859" y2="633.5859"/><text fill="#000000" font-family="Arial" font-size="11" lengthAdjust="spacing" textLength="88" x="162.5" y="628.9917">onEksportCSV()</text><polygon fill="#374151" points="161.5,656.3906,151.5,660.3906,161.5,664.3906,157.5,660.3906" style="stroke:#374151;stroke-width:1.0;"/><line style="stroke:#374151;stroke-width:1.5;stroke-dasharray:2.0,2.0;" x1="155.5" x2="261.5" y1="660.3906" y2="660.3906"/><text fill="#000000" font-family="Arial" font-size="11" lengthAdjust="spacing" textLength="23" x="195" y="655.7964">void</text><line style="stroke:#000000;stroke-width:1.0;stroke-dasharray:2.0,2.0;" x1="97" x2="328" y1="669.3906" y2="669.3906"/><a href="Eksport" target="_top" title="Eksport" xlink:actuate="onRequest" xlink:href="Eksport" xlink:show="new" xlink:title="Eksport" xlink:type="simple"><text fill="#0000FF" font-family="Arial" font-size="11" font-weight="bold" lengthAdjust="spacing" text-decoration="underline" textLength="24" x="102" y="679.6011">TXT</text></a><polygon fill="#374151" points="250.5,698,260.5,702,250.5,706,254.5,702" style="stroke:#374151;stroke-width:1.0;"/><line style="stroke:#374151;stroke-width:1.5;" x1="150.5" x2="256.5" y1="702" y2="702"/><text fill="#000000" font-family="Arial" font-size="11" lengthAdjust="spacing" textLength="86" x="163.5" y="697.4058">onEksportTXT()</text><polygon fill="#374151" points="161.5,724.8047,151.5,728.8047,161.5,732.8047,157.5,728.8047" style="stroke:#374151;stroke-width:1.0;"/><line style="stroke:#374151;stroke-width:1.5;stroke-dasharray:2.0,2.0;" x1="155.5" x2="261.5" y1="728.8047" y2="728.8047"/><text fill="#000000" font-family="Arial" font-size="11" lengthAdjust="spacing" textLength="23" x="195" y="724.2104">void</text><!--SRC=[bPF1Rjf048Rl-nIhz98SKiM5D6aEbOp1FPIqLOAIIbKFWpsGgJUxxkuI15NUlOCDyM8u00Sa__Fjp3-pivwyGda7fR7Up44J2k4AqYLOU9OvJc2cV6gq_mRFA6DBeFR7xsc9Ceg2eCE_CzGPtg9pCCLOqLJB3BL76r0MNMcqsr0zL6OUMslcqjlPbXd-zvHH2ThBVqBA7cJ5r9gPpXEZZ9Nl1eFqGvgk8iRcQDTgjzEvJc9MLoxNMWJHf9E9ro0xP9uZn-TztTDnbQPgOirshhhHPRGHHq-K5PhxbT7xInQ7DC4XQTnl-oswO-jYS5NPwjCByS4T8Br8-sat0CByqSUuqzsshut7_HD81-cdfDEUG19VnnTTJY7guSNvCsbotW9_YV2wJcuUAJT5lMOd4fny89ota3gQy2rPenJQYci-M_GN2nCgxh0qZhZSeg8RiKNVWu8Mkv5QvCYYHjjY6x559qjbDBPj1AeGMrEHvv-hrkMD_676X7OfRTMsgDIt7sDDvmnRdF13UJez4oBGsvGPAygMtyVAB95VCdV81xRvPaAI3qn8vxt5Q94l2VNfq6IW-i1Bm2_oJ0JeURlIa1jgPTxCSsM_pXohLVr0tqbp2-K13SM5NyorSTa1tTGrZxJUNEzsca0_sdfPN-_ZOWeE_a26E-Q3BLbN_GfMery4PuYtBDV4HmDuVqjRsPirgsEWlFmrADngrMHo__2RttAmSJjprskMKVOjvRxSihxf5qEvGEMmAJ3wEJgq0AE75T2v-0y0]--></g></svg>