<svg xmlns="http://www.w3.org/2000/svg" xmlns:xlink="http://www.w3.org/1999/xlink" contentStyleType="text/css" data-diagram-type="CLASS" height="854px" preserveAspectRatio="none" style="width:853px;height:854px;background:#FFFFFF;" version="1.1" viewBox="0 0 853 854" width="853px" zoomAndPan="magnify"><title>Diagram klas &#8212; warstwa modelu (POJO)</title><defs/><g><text fill="#000000" font-family="Arial" font-size="14" font-weight="bold" lengthAdjust="spacing" textLength="279.5649" x="283.2176" y="24.9659">Diagram klas &#8212; warstwa modelu (POJO)</text><!--class StatusSali--><g class="entity" data-entity="StatusSali" data-source-line="26" data-uid="ent0002" id="entity_StatusSali"><rect fill="#EEF2FF" height="88.9457" rx="2.5" ry="2.5" style="stroke:#4338CA;stroke-width:1.5;" width="83.7965" x="269" y="758.0679"/><rect fill="#C7D2FE" height="28" rx="2.5" ry="2.5" style="stroke:#C7D2FE;stroke-width:1.5;" width="83.7965" x="269" y="758.0679"/><rect fill="#C7D2FE" height="2.5" style="stroke:#C7D2FE;stroke-width:1.5;" width="83.7965" x="269" y="783.5679"/><rect fill="none" height="88.9457" rx="2.5" ry="2.5" style="stroke:#4338CA;stroke-width:1.5;" width="83.7965" x="269" y="758.0679"/><ellipse cx="284.5613" cy="772.0679" fill="#EB937F" rx="9" ry="9" style="stroke:#181818;stroke-width:1;"/><path d="M286.4519,776.0679 L281.4676,776.0679 L281.4676,768.0523 L286.4519,768.0523 L286.4519,769.4429 L283.0457,769.4429 L283.0457,771.1773 L286.1394,771.1773 L286.1394,772.5679 L283.0457,772.5679 L283.0457,774.6773 L286.4519,774.6773 L286.4519,776.0679 Z " fill="#000000"/><text fill="#1A1F3C" font-family="Arial" font-size="11" lengthAdjust="spacing" textLength="50.1047" x="297.1305" y="776.3359">StatusSali</text><line style="stroke:#4338CA;stroke-width:1.5;" x1="270" x2="351.7965" y1="786.0679" y2="786.0679"/><text fill="#000000" font-family="Arial" font-size="11" lengthAdjust="spacing" textLength="56.9356" x="275" y="801.8268">DOSTEPNA</text><text fill="#000000" font-family="Arial" font-size="11" lengthAdjust="spacing" textLength="35.5847" x="275" y="816.8087">ZAJETA</text><text fill="#000000" font-family="Arial" font-size="11" lengthAdjust="spacing" textLength="71.7965" x="275" y="831.7906">W_REMONCIE</text><line style="stroke:#4338CA;stroke-width:1.5;" x1="270" x2="351.7965" y1="839.0136" y2="839.0136"/></g><!--class StatusKarnetu--><g class="entity" data-entity="StatusKarnetu" data-source-line="32" data-uid="ent0003" id="entity_StatusKarnetu"><rect fill="#EEF2FF" height="88.9457" rx="2.5" ry="2.5" style="stroke:#4338CA;stroke-width:1.5;" width="113.1002" x="611.5" y="517.5679"/><rect fill="#C7D2FE" height="28" rx="2.5" ry="2.5" style="stroke:#C7D2FE;stroke-width:1.5;" width="113.1002" x="611.5" y="517.5679"/><rect fill="#C7D2FE" height="2.5" style="stroke:#C7D2FE;stroke-width:1.5;" width="113.1002" x="611.5" y="543.0679"/><rect fill="none" height="88.9457" rx="2.5" ry="2.5" style="stroke:#4338CA;stroke-width:1.5;" width="113.1002" x="611.5" y="517.5679"/><ellipse cx="629.7145" cy="531.5679" fill="#EB937F" rx="9" ry="9" style="stroke:#181818;stroke-width:1;"/><path d="M631.6051,535.5679 L626.6207,535.5679 L626.6207,527.5523 L631.6051,527.5523 L631.6051,528.9429 L628.1989,528.9429 L628.1989,530.6773 L631.2926,530.6773 L631.2926,532.0679 L628.1989,532.0679 L628.1989,534.1773 L631.6051,534.1773 L631.6051,535.5679 Z " fill="#000000"/><text fill="#1A1F3C" font-family="Arial" font-size="11" lengthAdjust="spacing" textLength="73.5125" x="642.8733" y="535.8359">StatusKarnetu</text><line style="stroke:#4338CA;stroke-width:1.5;" x1="612.5" x2="723.6002" y1="545.5679" y2="545.5679"/><text fill="#000000" font-family="Arial" font-size="11" lengthAdjust="spacing" textLength="50.9956" x="617.5" y="561.3268">AKTYWNY</text><text fill="#000000" font-family="Arial" font-size="11" lengthAdjust="spacing" textLength="43.2957" x="617.5" y="576.3087">WYGASL</text><text fill="#000000" font-family="Arial" font-size="11" lengthAdjust="spacing" textLength="101.1002" x="617.5" y="591.2906">WYGASA_WKROTCE</text><line style="stroke:#4338CA;stroke-width:1.5;" x1="612.5" x2="723.6002" y1="598.5136" y2="598.5136"/></g><!--class RodzajKarnetu--><g class="entity" data-entity="RodzajKarnetu" data-source-line="38" data-uid="ent0004" id="entity_RodzajKarnetu"><rect fill="#EEF2FF" height="88.9457" rx="2.5" ry="2.5" style="stroke:#4338CA;stroke-width:1.5;" width="103.7345" x="743" y="517.5679"/><rect fill="#C7D2FE" height="28" rx="2.5" ry="2.5" style="stroke:#C7D2FE;stroke-width:1.5;" width="103.7345" x="743" y="517.5679"/><rect fill="#C7D2FE" height="2.5" style="stroke:#C7D2FE;stroke-width:1.5;" width="103.7345" x="743" y="543.0679"/><rect fill="none" height="88.9457" rx="2.5" ry="2.5" style="stroke:#4338CA;stroke-width:1.5;" width="103.7345" x="743" y="517.5679"/><ellipse cx="756" cy="531.5679" fill="#EB937F" rx="9" ry="9" style="stroke:#181818;stroke-width:1;"/><path d="M757.8906,535.5679 L752.9063,535.5679 L752.9063,527.5523 L757.8906,527.5523 L757.8906,528.9429 L754.4844,528.9429 L754.4844,530.6773 L757.5781,530.6773 L757.5781,532.0679 L754.4844,532.0679 L754.4844,534.1773 L757.8906,534.1773 L757.8906,535.5679 Z " fill="#000000"/><text fill="#1A1F3C" font-family="Arial" font-size="11" lengthAdjust="spacing" textLength="75.7345" x="768" y="535.8359">RodzajKarnetu</text><line style="stroke:#4338CA;stroke-width:1.5;" x1="744" x2="845.7345" y1="545.5679" y2="545.5679"/><text fill="#000000" font-family="Arial" font-size="11" lengthAdjust="spacing" textLength="63.5355" x="749" y="561.3268">MIESI&#280;CZNY</text><text fill="#000000" font-family="Arial" font-size="11" lengthAdjust="spacing" textLength="64.4045" x="749" y="576.3087">KWARTALNY</text><text fill="#000000" font-family="Arial" font-size="11" lengthAdjust="spacing" textLength="43.2627" x="749" y="591.2906">ROCZNY</text><line style="stroke:#4338CA;stroke-width:1.5;" x1="744" x2="845.7345" y1="598.5136" y2="598.5136"/></g><!--class Trener--><g class="entity" data-entity="Trener" data-source-line="45" data-uid="ent0005" id="entity_Trener"><rect fill="#EEF2FF" height="283.7102" rx="2.5" ry="2.5" style="stroke:#4338CA;stroke-width:1.5;" width="196.2047" x="6" y="420.0679"/><rect fill="#C7D2FE" height="28" rx="2.5" ry="2.5" style="stroke:#C7D2FE;stroke-width:1.5;" width="196.2047" x="6" y="420.0679"/><rect fill="#C7D2FE" height="2.5" style="stroke:#C7D2FE;stroke-width:1.5;" width="196.2047" x="6" y="445.5679"/><rect fill="none" height="283.7102" rx="2.5" ry="2.5" style="stroke:#4338CA;stroke-width:1.5;" width="196.2047" x="6" y="420.0679"/><ellipse cx="83.1485" cy="434.0679" fill="#ADD1B2" rx="9" ry="9" style="stroke:#181818;stroke-width:1;"/><path d="M84.461,437.8335 Q84.086,438.0367 83.6641,438.1304 Q83.2578,438.2242 82.7891,438.2242 Q81.1797,438.2242 80.3203,437.1617 Q79.461,436.0835 79.461,434.0679 Q79.461,432.0367 80.3203,430.9742 Q81.1797,429.896 82.7891,429.896 Q83.2578,429.896 83.6641,430.0054 Q84.086,430.0992 84.461,430.2867 L84.461,432.0523 Q84.0391,431.6773 83.6485,431.5054 Q83.2735,431.3335 82.8672,431.3335 Q82.0078,431.3335 81.5547,432.021 Q81.1172,432.7085 81.1172,434.0679 Q81.1172,435.4273 81.5547,436.1148 Q82.0078,436.8023 82.8672,436.8023 Q83.2735,436.8023 83.6485,436.6304 Q84.0391,436.4585 84.461,436.0679 L84.461,437.8335 Z " fill="#000000"/><text fill="#1A1F3C" font-family="Arial" font-size="11" lengthAdjust="spacing" textLength="34.4077" x="100.6485" y="438.3359">Trener</text><line style="stroke:#4338CA;stroke-width:1.5;" x1="7" x2="201.2047" y1="448.0679" y2="448.0679"/><text fill="#000000" font-family="Arial" font-size="11" lengthAdjust="spacing" textLength="46.9587" x="12" y="463.8268">-String id</text><text fill="#000000" font-family="Arial" font-size="11" lengthAdjust="spacing" textLength="59.5206" x="12" y="478.8087">-String imie</text><text fill="#000000" font-family="Arial" font-size="11" lengthAdjust="spacing" textLength="84.7764" x="12" y="493.7906">-String nazwisko</text><text fill="#000000" font-family="Arial" font-size="11" lengthAdjust="spacing" textLength="65.6915" x="12" y="508.7725">-String email</text><text fill="#000000" font-family="Arial" font-size="11" lengthAdjust="spacing" textLength="73.8095" x="12" y="523.7544">-String telefon</text><text fill="#000000" font-family="Arial" font-size="11" lengthAdjust="spacing" textLength="101.1883" x="12" y="538.7363">-String specjalizacja</text><text fill="#000000" font-family="Arial" font-size="11" lengthAdjust="spacing" textLength="91.1673" x="12" y="553.7182">-boolean aktywny</text><line style="stroke:#4338CA;stroke-width:1;" x1="7" x2="201.2047" y1="560.9411" y2="560.9411"/><text fill="#000000" font-family="Arial" font-size="11" lengthAdjust="spacing" textLength="74.1395" x="12" y="576.7">+String getId()</text><text fill="#000000" font-family="Arial" font-size="11" lengthAdjust="spacing" textLength="86.7014" x="12" y="591.6819">+String getImie()</text><text fill="#000000" font-family="Arial" font-size="11" lengthAdjust="spacing" textLength="112.6282" x="12" y="606.6638">+String getNazwisko()</text><text fill="#000000" font-family="Arial" font-size="11" lengthAdjust="spacing" textLength="91.8933" x="12" y="621.6457">+String getEmail()</text><text fill="#000000" font-family="Arial" font-size="11" lengthAdjust="spacing" textLength="102.2442" x="12" y="636.6276">+String getTelefon()</text><text fill="#000000" font-family="Arial" font-size="11" lengthAdjust="spacing" textLength="128.2481" x="12" y="651.6095">+String getSpecjalizacja()</text><text fill="#000000" font-family="Arial" font-size="11" lengthAdjust="spacing" textLength="109.4822" x="12" y="666.5914">+boolean isAktywny()</text><text fill="#000000" font-family="Arial" font-size="11" lengthAdjust="spacing" textLength="184.2047" x="12" y="681.5733">+void setAktywny(boolean aktywny)</text><text fill="#000000" font-family="Arial" font-size="11" lengthAdjust="spacing" textLength="135.684" x="12" y="696.5551">+String getImieNazwisko()</text></g><!--class Sala--><g class="entity" data-entity="Sala" data-source-line="66" data-uid="ent0006" id="entity_Sala"><rect fill="#EEF2FF" height="208.8008" rx="2.5" ry="2.5" style="stroke:#4338CA;stroke-width:1.5;" width="181.6738" x="220" y="457.5679"/><rect fill="#C7D2FE" height="28" rx="2.5" ry="2.5" style="stroke:#C7D2FE;stroke-width:1.5;" width="181.6738" x="220" y="457.5679"/><rect fill="#C7D2FE" height="2.5" style="stroke:#C7D2FE;stroke-width:1.5;" width="181.6738" x="220" y="483.0679"/><rect fill="none" height="208.8008" rx="2.5" ry="2.5" style="stroke:#4338CA;stroke-width:1.5;" width="181.6738" x="220" y="457.5679"/><ellipse cx="296.4775" cy="471.5679" fill="#ADD1B2" rx="9" ry="9" style="stroke:#181818;stroke-width:1;"/><path d="M297.79,475.3335 Q297.415,475.5367 296.9931,475.6304 Q296.5869,475.7242 296.1181,475.7242 Q294.5087,475.7242 293.6494,474.6617 Q292.79,473.5835 292.79,471.5679 Q292.79,469.5367 293.6494,468.4742 Q294.5087,467.396 296.1181,467.396 Q296.5869,467.396 296.9931,467.5054 Q297.415,467.5992 297.79,467.7867 L297.79,469.5523 Q297.3681,469.1773 296.9775,469.0054 Q296.6025,468.8335 296.1962,468.8335 Q295.3369,468.8335 294.8837,469.521 Q294.4462,470.2085 294.4462,471.5679 Q294.4462,472.9273 294.8837,473.6148 Q295.3369,474.3023 296.1962,474.3023 Q296.6025,474.3023 296.9775,474.1304 Q297.3681,473.9585 297.79,473.5679 L297.79,475.3335 Z " fill="#000000"/><text fill="#1A1F3C" font-family="Arial" font-size="11" lengthAdjust="spacing" textLength="21.2189" x="313.9775" y="475.8359">Sala</text><line style="stroke:#4338CA;stroke-width:1.5;" x1="221" x2="400.6738" y1="485.5679" y2="485.5679"/><text fill="#000000" font-family="Arial" font-size="11" lengthAdjust="spacing" textLength="46.9587" x="226" y="501.3268">-String id</text><text fill="#000000" font-family="Arial" font-size="11" lengthAdjust="spacing" textLength="70.3115" x="226" y="516.3087">-String nazwa</text><text fill="#000000" font-family="Arial" font-size="11" lengthAdjust="spacing" textLength="76.7575" x="226" y="531.2906">-int pojemnosc</text><text fill="#000000" font-family="Arial" font-size="11" lengthAdjust="spacing" textLength="112.2432" x="226" y="546.2725">-int minPrzerwaMinut</text><text fill="#000000" font-family="Arial" font-size="11" lengthAdjust="spacing" textLength="87.9554" x="226" y="561.2544">-StatusSali status</text><line style="stroke:#4338CA;stroke-width:1;" x1="221" x2="400.6738" y1="568.4774" y2="568.4774"/><text fill="#000000" font-family="Arial" font-size="11" lengthAdjust="spacing" textLength="74.1395" x="226" y="584.2363">+String getId()</text><text fill="#000000" font-family="Arial" font-size="11" lengthAdjust="spacing" textLength="98.1633" x="226" y="599.2182">+String getNazwa()</text><text fill="#000000" font-family="Arial" font-size="11" lengthAdjust="spacing" textLength="102.9373" x="226" y="614.2">+int getPojemnosc()</text><text fill="#000000" font-family="Arial" font-size="11" lengthAdjust="spacing" textLength="138.225" x="226" y="629.1819">+int getMinPrzerwaMinut()</text><text fill="#000000" font-family="Arial" font-size="11" lengthAdjust="spacing" textLength="115.0152" x="226" y="644.1638">+StatusSali getStatus()</text><text fill="#000000" font-family="Arial" font-size="11" lengthAdjust="spacing" textLength="169.6738" x="226" y="659.1457">+void setStatus(StatusSali status)</text></g><!--class Zajecia--><g class="entity" data-entity="Zajecia" data-source-line="82" data-uid="ent0007" id="entity_Zajecia"><rect fill="#EEF2FF" height="313.674" rx="2.5" ry="2.5" style="stroke:#4338CA;stroke-width:1.5;" width="217.5336" x="202" y="52.0679"/><rect fill="#C7D2FE" height="28" rx="2.5" ry="2.5" style="stroke:#C7D2FE;stroke-width:1.5;" width="217.5336" x="202" y="52.0679"/><rect fill="#C7D2FE" height="2.5" style="stroke:#C7D2FE;stroke-width:1.5;" width="217.5336" x="202" y="77.5679"/><rect fill="none" height="313.674" rx="2.5" ry="2.5" style="stroke:#4338CA;stroke-width:1.5;" width="217.5336" x="202" y="52.0679"/><ellipse cx="289.1199" cy="66.0679" fill="#ADD1B2" rx="9" ry="9" style="stroke:#181818;stroke-width:1;"/><path d="M290.4324,69.8335 Q290.0574,70.0367 289.6355,70.1304 Q289.2293,70.2242 288.7605,70.2242 Q287.1512,70.2242 286.2918,69.1617 Q285.4324,68.0835 285.4324,66.0679 Q285.4324,64.0367 286.2918,62.9742 Q287.1512,61.896 288.7605,61.896 Q289.2293,61.896 289.6355,62.0054 Q290.0574,62.0992 290.4324,62.2867 L290.4324,64.0523 Q290.0105,63.6773 289.6199,63.5054 Q289.2449,63.3335 288.8387,63.3335 Q287.9793,63.3335 287.5262,64.021 Q287.0887,64.7085 287.0887,66.0679 Q287.0887,67.4273 287.5262,68.1148 Q287.9793,68.8023 288.8387,68.8023 Q289.2449,68.8023 289.6199,68.6304 Q290.0105,68.4585 290.4324,68.0679 L290.4324,69.8335 Z " fill="#000000"/><text fill="#1A1F3C" font-family="Arial" font-size="11" lengthAdjust="spacing" textLength="35.7937" x="306.6199" y="70.3359">Zajecia</text><line style="stroke:#4338CA;stroke-width:1.5;" x1="203" x2="418.5336" y1="80.0679" y2="80.0679"/><text fill="#000000" font-family="Arial" font-size="11" lengthAdjust="spacing" textLength="46.9587" x="208" y="95.8268">-String id</text><text fill="#000000" font-family="Arial" font-size="11" lengthAdjust="spacing" textLength="70.3115" x="208" y="110.8087">-String nazwa</text><text fill="#000000" font-family="Arial" font-size="11" lengthAdjust="spacing" textLength="80.1124" x="208" y="125.7906">-String trenerId</text><text fill="#000000" font-family="Arial" font-size="11" lengthAdjust="spacing" textLength="68.2985" x="208" y="140.7725">-String salaId</text><text fill="#000000" font-family="Arial" font-size="11" lengthAdjust="spacing" textLength="117.5672" x="208" y="155.7544">-LocalDateTime termin</text><text fill="#000000" font-family="Arial" font-size="11" lengthAdjust="spacing" textLength="113.5632" x="208" y="170.7363">-int czasTrwaniaMinut</text><text fill="#000000" font-family="Arial" font-size="11" lengthAdjust="spacing" textLength="107.5243" x="208" y="185.7182">-int limitUczestnikow</text><text fill="#000000" font-family="Arial" font-size="11" lengthAdjust="spacing" textLength="136.762" x="208" y="200.7">-List&lt;String&gt; uczestnicyIds</text><line style="stroke:#4338CA;stroke-width:1;" x1="203" x2="418.5336" y1="207.923" y2="207.923"/><text fill="#000000" font-family="Arial" font-size="11" lengthAdjust="spacing" textLength="74.1395" x="208" y="223.6819">+String getId()</text><text fill="#000000" font-family="Arial" font-size="11" lengthAdjust="spacing" textLength="98.1633" x="208" y="238.6638">+String getNazwa()</text><text fill="#000000" font-family="Arial" font-size="11" lengthAdjust="spacing" textLength="108.5472" x="208" y="253.6457">+String getTrenerId()</text><text fill="#000000" font-family="Arial" font-size="11" lengthAdjust="spacing" textLength="95.3583" x="208" y="268.6276">+String getSalaId()</text><text fill="#000000" font-family="Arial" font-size="11" lengthAdjust="spacing" textLength="146.0019" x="208" y="283.6095">+LocalDateTime getTermin()</text><text fill="#000000" font-family="Arial" font-size="11" lengthAdjust="spacing" textLength="141.525" x="208" y="298.5914">+int getCzasTrwaniaMinut()</text><text fill="#000000" font-family="Arial" font-size="11" lengthAdjust="spacing" textLength="136.74" x="208" y="313.5733">+int getLimitUczestnikow()</text><text fill="#000000" font-family="Arial" font-size="11" lengthAdjust="spacing" textLength="164.2948" x="208" y="328.5551">+List&lt;String&gt; getUczestnicyIds()</text><text fill="#000000" font-family="Arial" font-size="11" lengthAdjust="spacing" textLength="205.5336" x="208" y="343.537">+void dodajUczestnika(String czlonekId)</text><text fill="#000000" font-family="Arial" font-size="11" lengthAdjust="spacing" textLength="202.0025" x="208" y="358.5189">+void usunUczestnika(String czlonekId)</text></g><!--class Czlonek--><g class="entity" data-entity="Czlonek" data-source-line="105" data-uid="ent0008" id="entity_Czlonek"><rect fill="#EEF2FF" height="238.7645" rx="2.5" ry="2.5" style="stroke:#4338CA;stroke-width:1.5;" width="173.3029" x="420.5" y="442.5679"/><rect fill="#C7D2FE" height="28" rx="2.5" ry="2.5" style="stroke:#C7D2FE;stroke-width:1.5;" width="173.3029" x="420.5" y="442.5679"/><rect fill="#C7D2FE" height="2.5" style="stroke:#C7D2FE;stroke-width:1.5;" width="173.3029" x="420.5" y="468.0679"/><rect fill="none" height="238.7645" rx="2.5" ry="2.5" style="stroke:#4338CA;stroke-width:1.5;" width="173.3029" x="420.5" y="442.5679"/><ellipse cx="483.1561" cy="456.5679" fill="#ADD1B2" rx="9" ry="9" style="stroke:#181818;stroke-width:1;"/><path d="M484.4686,460.3335 Q484.0936,460.5367 483.6717,460.6304 Q483.2654,460.7242 482.7967,460.7242 Q481.1873,460.7242 480.3279,459.6617 Q479.4686,458.5835 479.4686,456.5679 Q479.4686,454.5367 480.3279,453.4742 Q481.1873,452.396 482.7967,452.396 Q483.2654,452.396 483.6717,452.5054 Q484.0936,452.5992 484.4686,452.7867 L484.4686,454.5523 Q484.0467,454.1773 483.6561,454.0054 Q483.2811,453.8335 482.8748,453.8335 Q482.0154,453.8335 481.5623,454.521 Q481.1248,455.2085 481.1248,456.5679 Q481.1248,457.9273 481.5623,458.6148 Q482.0154,459.3023 482.8748,459.3023 Q483.2811,459.3023 483.6561,459.1304 Q484.0467,458.9585 484.4686,458.5679 L484.4686,460.3335 Z " fill="#000000"/><text fill="#1A1F3C" font-family="Arial" font-size="11" lengthAdjust="spacing" textLength="40.4907" x="500.6561" y="460.8359">Czlonek</text><line style="stroke:#4338CA;stroke-width:1.5;" x1="421.5" x2="592.8029" y1="470.5679" y2="470.5679"/><text fill="#000000" font-family="Arial" font-size="11" lengthAdjust="spacing" textLength="46.9587" x="426.5" y="486.3268">-String id</text><text fill="#000000" font-family="Arial" font-size="11" lengthAdjust="spacing" textLength="59.5206" x="426.5" y="501.3087">-String imie</text><text fill="#000000" font-family="Arial" font-size="11" lengthAdjust="spacing" textLength="84.7764" x="426.5" y="516.2906">-String nazwisko</text><text fill="#000000" font-family="Arial" font-size="11" lengthAdjust="spacing" textLength="65.6915" x="426.5" y="531.2725">-String email</text><text fill="#000000" font-family="Arial" font-size="11" lengthAdjust="spacing" textLength="73.8095" x="426.5" y="546.2544">-String telefon</text><text fill="#000000" font-family="Arial" font-size="11" lengthAdjust="spacing" textLength="133.7481" x="426.5" y="561.2363">-LocalDate dataUrodzenia</text><line style="stroke:#4338CA;stroke-width:1;" x1="421.5" x2="592.8029" y1="568.4592" y2="568.4592"/><text fill="#000000" font-family="Arial" font-size="11" lengthAdjust="spacing" textLength="74.1395" x="426.5" y="584.2182">+String getId()</text><text fill="#000000" font-family="Arial" font-size="11" lengthAdjust="spacing" textLength="86.7014" x="426.5" y="599.2">+String getImie()</text><text fill="#000000" font-family="Arial" font-size="11" lengthAdjust="spacing" textLength="112.6282" x="426.5" y="614.1819">+String getNazwisko()</text><text fill="#000000" font-family="Arial" font-size="11" lengthAdjust="spacing" textLength="91.8933" x="426.5" y="629.1638">+String getEmail()</text><text fill="#000000" font-family="Arial" font-size="11" lengthAdjust="spacing" textLength="102.2442" x="426.5" y="644.1457">+String getTelefon()</text><text fill="#000000" font-family="Arial" font-size="11" lengthAdjust="spacing" textLength="161.3029" x="426.5" y="659.1276">+LocalDate getDataUrodzenia()</text><text fill="#000000" font-family="Arial" font-size="11" lengthAdjust="spacing" textLength="135.684" x="426.5" y="674.1095">+String getImieNazwisko()</text></g><!--class Karnet--><g class="entity" data-entity="Karnet" data-source-line="123" data-uid="ent0009" id="entity_Karnet"><rect fill="#EEF2FF" height="223.7827" rx="2.5" ry="2.5" style="stroke:#4338CA;stroke-width:1.5;" width="181.0908" x="577.5" y="97.0679"/><rect fill="#C7D2FE" height="28" rx="2.5" ry="2.5" style="stroke:#C7D2FE;stroke-width:1.5;" width="181.0908" x="577.5" y="97.0679"/><rect fill="#C7D2FE" height="2.5" style="stroke:#C7D2FE;stroke-width:1.5;" width="181.0908" x="577.5" y="122.5679"/><rect fill="none" height="223.7827" rx="2.5" ry="2.5" style="stroke:#4338CA;stroke-width:1.5;" width="181.0908" x="577.5" y="97.0679"/><ellipse cx="647.0475" cy="111.0679" fill="#ADD1B2" rx="9" ry="9" style="stroke:#181818;stroke-width:1;"/><path d="M648.36,114.8335 Q647.985,115.0367 647.5631,115.1304 Q647.1569,115.2242 646.6881,115.2242 Q645.0788,115.2242 644.2194,114.1617 Q643.36,113.0835 643.36,111.0679 Q643.36,109.0367 644.2194,107.9742 Q645.0788,106.896 646.6881,106.896 Q647.1569,106.896 647.5631,107.0054 Q647.985,107.0992 648.36,107.2867 L648.36,109.0523 Q647.9381,108.6773 647.5475,108.5054 Q647.1725,108.3335 646.7663,108.3335 Q645.9069,108.3335 645.4538,109.021 Q645.0163,109.7085 645.0163,111.0679 Q645.0163,112.4273 645.4538,113.1148 Q645.9069,113.8023 646.7663,113.8023 Q647.1725,113.8023 647.5475,113.6304 Q647.9381,113.4585 648.36,113.0679 L648.36,114.8335 Z " fill="#000000"/><text fill="#1A1F3C" font-family="Arial" font-size="11" lengthAdjust="spacing" textLength="34.4957" x="664.5475" y="115.3359">Karnet</text><line style="stroke:#4338CA;stroke-width:1.5;" x1="578.5" x2="757.5908" y1="125.0679" y2="125.0679"/><text fill="#000000" font-family="Arial" font-size="11" lengthAdjust="spacing" textLength="46.9587" x="583.5" y="140.8268">-String id</text><text fill="#000000" font-family="Arial" font-size="11" lengthAdjust="spacing" textLength="86.6684" x="583.5" y="155.8087">-String czlonekId</text><text fill="#000000" font-family="Arial" font-size="11" lengthAdjust="spacing" textLength="114.2782" x="583.5" y="170.7906">-RodzajKarnetu rodzaj</text><text fill="#000000" font-family="Arial" font-size="11" lengthAdjust="spacing" textLength="95.9194" x="583.5" y="185.7725">-LocalDate dataOd</text><text fill="#000000" font-family="Arial" font-size="11" lengthAdjust="spacing" textLength="95.2484" x="583.5" y="200.7544">-LocalDate dataDo</text><line style="stroke:#4338CA;stroke-width:1;" x1="578.5" x2="757.5908" y1="207.9774" y2="207.9774"/><text fill="#000000" font-family="Arial" font-size="11" lengthAdjust="spacing" textLength="74.1395" x="583.5" y="223.7363">+String getId()</text><text fill="#000000" font-family="Arial" font-size="11" lengthAdjust="spacing" textLength="114.6302" x="583.5" y="238.7182">+String getCzlonekId()</text><text fill="#000000" font-family="Arial" font-size="11" lengthAdjust="spacing" textLength="142.867" x="583.5" y="253.7">+RodzajKarnetu getRodzaj()</text><text fill="#000000" font-family="Arial" font-size="11" lengthAdjust="spacing" textLength="123.4741" x="583.5" y="268.6819">+LocalDate getDataOd()</text><text fill="#000000" font-family="Arial" font-size="11" lengthAdjust="spacing" textLength="122.8031" x="583.5" y="283.6638">+LocalDate getDataDo()</text><text fill="#000000" font-family="Arial" font-size="11" lengthAdjust="spacing" textLength="138.423" x="583.5" y="298.6457">+StatusKarnetu getStatus()</text><text fill="#000000" font-family="Arial" font-size="11" lengthAdjust="spacing" textLength="169.0908" x="583.5" y="313.6276">+boolean wygasaWCiagu(int dni)</text></g><g class="link" data-entity-1="Sala" data-entity-2="StatusSali" data-uid="lnk10" id="link_Sala_StatusSali"><polygon fill="#374151" points="311,757.9377,315,748.9377,311,752.9377,307,748.9377,311,757.9377" style="stroke:#374151;stroke-width:1;"/><path d="M311,666.637 C311,698.6935 311,726.2884 311,751.9377" fill="none" style="stroke:#374151;stroke-width:1.5;"/><text fill="#000000" font-family="Arial" font-size="11" lengthAdjust="spacing" textLength="31.4488" x="313" y="735.8268">status</text></g><g class="link" data-entity-1="Karnet" data-entity-2="RodzajKarnetu" data-uid="lnk11" id="link_Karnet_RodzajKarnetu"><polygon fill="#374151" points="781.9132,517.4959,783.0991,507.7187,780.4475,512.7156,775.4506,510.0639,781.9132,517.4959" style="stroke:#374151;stroke-width:1;"/><path d="M714.1781,321.4715 C722.3742,342.1807 730.6359,363.7054 738,384.0679 C754.3043,429.1509 769.1142,475.753 780.1543,511.7595" fill="none" style="stroke:#374151;stroke-width:1.5;"/><text fill="#000000" font-family="Arial" font-size="11" lengthAdjust="spacing" textLength="32.1418" x="746" y="397.8268">rodzaj</text></g><g class="link" data-entity-1="Karnet" data-entity-2="StatusKarnetu" data-uid="lnk12" id="link_Karnet_StatusKarnetu"><polygon fill="#374151" points="668,517.2348,672,508.2348,668,512.2348,664,508.2348,668,517.2348" style="stroke:#374151;stroke-width:1;"/><path d="M668,321.1265 C668,387.6058 668,462.4111 668,511.2348" fill="none" style="stroke:#374151;stroke-width:1.5;stroke-dasharray:7.0,7.0;"/><text fill="#000000" font-family="Arial" font-size="11" lengthAdjust="spacing" textLength="62.4245" x="670" y="397.8268">&#171;computes&#187;</text></g><g class="link" data-entity-1="Zajecia" data-entity-2="Trener" data-uid="lnk13" id="link_Zajecia_Trener"><polygon fill="#374151" points="187.258,419.8913,195.2753,414.171,189.7979,415.5845,188.3844,410.1071,187.258,419.8913" style="stroke:#374151;stroke-width:1;"/><path d="M218.8505,366.3214 C208.3307,384.1593 200.7005,397.0974 190.3059,414.7231" fill="none" style="stroke:#374151;stroke-width:1.5;"/><text fill="#000000" font-family="Arial" font-size="11" lengthAdjust="spacing" textLength="47.5527" x="210" y="397.8268">prowadzi</text><text fill="#000000" font-family="Arial" font-size="11" lengthAdjust="spacing" textLength="6.2919" x="180.258" y="416.6502">1</text><text fill="#000000" font-family="Arial" font-size="11" lengthAdjust="spacing" textLength="18.2489" x="199.8505" y="379.0803">0..*</text></g><g class="link" data-entity-1="Zajecia" data-entity-2="Sala" data-uid="lnk14" id="link_Zajecia_Sala"><polygon fill="#374151" points="311,457.3428,315,448.3428,311,452.3428,307,448.3428,311,457.3428" style="stroke:#374151;stroke-width:1;"/><path d="M311,366.3214 C311,397.1489 311,422.7783 311,451.3428" fill="none" style="stroke:#374151;stroke-width:1.5;"/><text fill="#000000" font-family="Arial" font-size="11" lengthAdjust="spacing" textLength="69.2885" x="313" y="397.8268">odbywa sie w</text><text fill="#000000" font-family="Arial" font-size="11" lengthAdjust="spacing" textLength="6.2919" x="304" y="454.1017">1</text><text fill="#000000" font-family="Arial" font-size="11" lengthAdjust="spacing" textLength="18.2489" x="292" y="379.0803">0..*</text></g><g class="link" data-entity-1="Karnet" data-entity-2="Czlonek" data-uid="lnk15" id="link_Karnet_Czlonek"><polygon fill="#374151" points="561.3669,442.5412,568.755,436.0284,563.4516,437.9965,561.4835,432.693,561.3669,442.5412" style="stroke:#374151;stroke-width:1;"/><path d="M617.0586,321.1265 C599.3245,359.7889 581.8695,397.8431 563.8685,437.0876" fill="none" style="stroke:#374151;stroke-width:1.5;"/><text fill="#000000" font-family="Arial" font-size="11" lengthAdjust="spacing" textLength="49.0706" x="590" y="397.8268">nalezy do</text><text fill="#000000" font-family="Arial" font-size="11" lengthAdjust="spacing" textLength="6.2919" x="554.3669" y="439.3001">1</text><text fill="#000000" font-family="Arial" font-size="11" lengthAdjust="spacing" textLength="18.2489" x="598.0586" y="333.8854">0..*</text></g><g class="link" data-entity-1="Zajecia" data-entity-2="Czlonek" data-uid="lnk16" id="link_Zajecia_Czlonek"><polygon fill="#374151" points="440.7027,442.3417,439.8072,432.5336,438.265,437.9762,432.8225,436.434,440.7027,442.3417" style="stroke:#374151;stroke-width:1;"/><path d="M398.2527,366.3214 C412.5042,391.8433 424.1374,412.6762 437.7775,437.1031" fill="none" style="stroke:#374151;stroke-width:1.5;"/><text fill="#000000" font-family="Arial" font-size="11" lengthAdjust="spacing" textLength="58.3876" x="417" y="397.8268">uczestniczy</text><text fill="#000000" font-family="Arial" font-size="11" lengthAdjust="spacing" textLength="18.2489" x="421.7027" y="439.1006">0..*</text><text fill="#000000" font-family="Arial" font-size="11" lengthAdjust="spacing" textLength="18.2489" x="379.2527" y="379.0803">0..*</text></g><!--SRC=[nLR1RkCs4BthAzZqK6-BTUDrjfi6WG5LbhVUn7PWAp2Ios8YCLxQ4ccGL0shAD2FwA4Vr2_fbvIaA8MIdI0eK3G7XtmpmtdpI8xurPR3AWEKmfxb4eaCIw3WII9JZ8O4LXmoj4b1eBz__mFjW0kv0vIn1ASvwjpCFitUU9xO4Be5xPdWHyXJEM9KJY73oES4qkFs1IamwlKSOwpI25zAJXvoYSSneyRdr6lxe5yzX7w2UBFYBAT9m5B6qTTXE7et6caBumdc5Zthzyy3Nw4_Or3eGLJmOVXk5DPspSnQUj1xxCVASWmhSqHVIBoXM37gTTzxlpayWNEsCpnjPF_3MUzzJysVZy4qpuwNDWf7FmRzTcc1V-wVdZrVscWO_d3kgnJUDoXKQsCEaZ0gF9De8K7cOW4fCJc7iqKKtaorKlV-fp3IW-NdUJYPJODng1Tnegw0Konp4-XVHNVBwPrsl_leBwwhWVzvUJMVHS5Jx9mb1QpTsCauN8p_-ZEuD_5NItyU-TTcF9yPq72FE12AUNdglF84H1nhI2_oLf7YXAuGIHgpZ61tJg7O4R5XBeOp8AaBI9pYHqPTI6nnl5Og5Q3-6SC3Ooa6Yc0ZzpkwrzXRzVDT5R72SfnqthGXnUS0d5fI1uPGCpj0evBU0RvmELfhnP88l-HfyLyOIP30ia9RrHoZxR0q6p9dB6liXZf5yD9UQErBxGYLQClMEADCn3MI4Nh32yntC24qbpQqFf_235-fioPRQQ3NLj1DbR09JvfPwvNgl5fPCsj9Py43XbQUG6lolL1NNDssXaxtiCOnUQLKrP4q9ttSS19ARujSinZI8KWS4TLl9UPAorhNk00HgVeeSOJLXbJT3daR5rX8IZPiLov5XBmiCmnGRetnVfpy6-cTGsiBE3orfWeBD-imPrsNqjone5LFqthTAgfQsIrBkTswbRaxcx04rdKyT2pJk4WPnPjnuhZc8gSlUfg3CC7PGwjl1QNBVzguQYbH0X9kkMgxM2dsl_Mf9pxAD7GfTLxJRKeLnHUoHJ7mf9JJF4US-ubYbctLgq6qlb2FNBKgBSEGsHqeBIzjGBsD1cn-jRYP7P5vbXm1X-oLeWTLIcjf9bKE9V2SeBFaESkGDTgQisAZirKVWTr-1GAMWNhuvHrzhH9Ap3QO3gzh6RWDKlrTLDtPwgezckmlAj6iHxSxQB6vG9UNrVuD1fvNjScJqsxtsnEpv4dlH6UpdtqLiLNlAqWAyeApvQoSMVAmLyzMGJ3QLJIE15INyqBTkHGNUzKHZYvV3f-ywrvPxBr_0000]--></g></svg>