<?xml version="1.0" encoding="us-ascii" standalone="no"?><svg xmlns="http://www.w3.org/2000/svg" xmlns:xlink="http://www.w3.org/1999/xlink" contentStyleType="text/css" height="691px" preserveAspectRatio="none" style="width:1874px;height:691px;background:#FFFFFF;" version="1.1" viewBox="0 0 1874 691" width="1874px" zoomAndPan="magnify"><defs/><g><text fill="#000000" font-family="Arial" font-size="14" font-weight="bold" lengthAdjust="spacing" textLength="391" x="740.375" y="32.9951">Zarz&#261;dzanie salami &#8212; Dodawanie i edycja (Epic 2)</text><rect fill="none" height="13.9688" style="stroke:none;stroke-width:1.0;" width="1845.75" x="11" y="48.627"/><ellipse cx="130.5" cy="77.5957" fill="#1E1B4B" rx="10" ry="10" style="stroke:#222222;stroke-width:1.0;"/><rect fill="#EEF2FF" height="47.9375" rx="12.5" ry="12.5" style="stroke:#4338CA;stroke-width:1.5;" width="154" x="53.5" y="107.5957"/><text fill="#000000" font-family="Arial" font-size="12" lengthAdjust="spacing" textLength="134" x="63.5" y="128.7344">Otwarcie sekcji "Sale"</text><text fill="#000000" font-family="Arial" font-size="12" lengthAdjust="spacing" textLength="108" x="63.5" y="142.7031">z menu bocznego</text><polygon fill="#FEF9C3" points="111,297.4395,150,297.4395,162,309.4395,150,321.4395,111,321.4395,99,309.4395,111,297.4395" style="stroke:#CA8A04;stroke-width:1.5;"/><text fill="#000000" font-family="Arial" font-size="12" lengthAdjust="spacing" textLength="39" x="111" y="313.5938">Akcja?</text><text fill="#000000" font-family="Arial" font-size="12" lengthAdjust="spacing" textLength="66" x="33" y="306.6094">Dodaj sal&#281;</text><text fill="#000000" font-family="Arial" font-size="12" lengthAdjust="spacing" textLength="68" x="162" y="306.6094">Edytuj sal&#281;</text><line style="stroke:#6366F1;stroke-width:2.0;" x1="28" x2="28" y1="48.627" y2="679.2832"/><rect fill="#EEF2FF" height="33.9688" rx="12.5" ry="12.5" style="stroke:#4338CA;stroke-width:1.5;" width="141" x="799.5" y="175.5332"/><text fill="#000000" font-family="Arial" font-size="12" lengthAdjust="spacing" textLength="121" x="809.5" y="196.6719">Wczytanie sale.json</text><rect fill="#EEF2FF" height="47.9375" rx="12.5" ry="12.5" style="stroke:#4338CA;stroke-width:1.5;" width="214" x="763" y="229.502"/><text fill="#000000" font-family="Arial" font-size="12" lengthAdjust="spacing" textLength="140" x="773" y="250.6406">Wy&#347;wietlenie tabeli sal</text><text fill="#000000" font-family="Arial" font-size="12" lengthAdjust="spacing" textLength="194" x="773" y="264.6094">(ID, Nazwa, Pojemno&#347;&#263;, Status)</text><path d="M565.75,353.4238 L565.75,361.4082 L545.75,365.4082 L565.75,369.4082 L565.75,377.3926 A0,0 0 0 0 565.75,377.3926 L1146.75,377.3926 A0,0 0 0 0 1146.75,377.3926 L1146.75,363.4238 L1136.75,353.4238 L565.75,353.4238 A0,0 0 0 0 565.75,353.4238 " fill="#FEFFDD" style="stroke:#181818;stroke-width:0.5;"/><path d="M1136.75,353.4238 L1136.75,363.4238 L1146.75,363.4238 L1136.75,353.4238 " fill="#FEFFDD" style="stroke:#181818;stroke-width:0.5;"/><text fill="#000000" font-family="Arial" font-size="12" lengthAdjust="spacing" textLength="560" x="571.75" y="369.5625">[Administrator] Wype&#322;nienie formularza / (nazwa, pojemno&#347;&#263;, typ sali, / przerwa minimalna)</text><rect fill="#EEF2FF" height="47.9375" rx="12.5" ry="12.5" style="stroke:#4338CA;stroke-width:1.5;" width="168" x="377.75" y="341.4395"/><text fill="#000000" font-family="Arial" font-size="12" lengthAdjust="spacing" textLength="148" x="387.75" y="362.5781">Wy&#347;wietlenie formularza</text><text fill="#000000" font-family="Arial" font-size="12" lengthAdjust="spacing" textLength="88" x="387.75" y="376.5469">"Dodanie Sali"</text><polygon fill="#FEF9C3" points="407.25,409.377,516.25,409.377,528.25,421.377,516.25,433.377,407.25,433.377,395.25,421.377,407.25,409.377" style="stroke:#CA8A04;stroke-width:1.5;"/><text fill="#000000" font-family="Arial" font-size="12" lengthAdjust="spacing" textLength="109" x="407.25" y="425.5313">Dane kompletne?</text><text fill="#000000" font-family="Arial" font-size="12" lengthAdjust="spacing" textLength="22" x="373.25" y="418.5469">TAK</text><text fill="#000000" font-family="Arial" font-size="12" lengthAdjust="spacing" textLength="20" x="528.25" y="418.5469">NIE</text><rect fill="#EEF2FF" height="33.9688" rx="12.5" ry="12.5" style="stroke:#4338CA;stroke-width:1.5;" width="200" x="251" y="443.377"/><text fill="#000000" font-family="Arial" font-size="12" lengthAdjust="spacing" textLength="180" x="261" y="464.5156">Zapis nowej sali do sale.json</text><rect fill="#EEF2FF" height="33.9688" rx="12.5" ry="12.5" style="stroke:#4338CA;stroke-width:1.5;" width="135" x="283.5" y="512.3457"/><text fill="#000000" font-family="Arial" font-size="12" lengthAdjust="spacing" textLength="115" x="293.5" y="533.4844">Od&#347;wie&#380;enie tabeli</text><ellipse cx="351" cy="592.3145" fill="none" rx="11" ry="11" style="stroke:#222222;stroke-width:1.0;"/><ellipse cx="351" cy="592.3145" fill="#222222" rx="6" ry="6" style="stroke:#222222;stroke-width:1.0;"/><path d="M694,448.377 L694,456.3613 L674,460.3613 L694,464.3613 L694,472.3457 A0,0 0 0 0 694,472.3457 L910,472.3457 A0,0 0 0 0 910,472.3457 L910,458.377 L900,448.377 L694,448.377 A0,0 0 0 0 694,448.377 " fill="#FEFFDD" style="stroke:#181818;stroke-width:0.5;"/><path d="M900,448.377 L900,458.377 L910,458.377 L900,448.377 " fill="#FEFFDD" style="stroke:#181818;stroke-width:0.5;"/><text fill="#000000" font-family="Arial" font-size="12" lengthAdjust="spacing" textLength="195" x="700" y="464.5156">[Administrator] Korekta danych</text><rect fill="#EEF2FF" height="33.9688" rx="12.5" ry="12.5" style="stroke:#4338CA;stroke-width:1.5;" width="203" x="471" y="443.377"/><text fill="#000000" font-family="Arial" font-size="12" lengthAdjust="spacing" textLength="183" x="481" y="464.5156">Wy&#347;wietlenie b&#322;&#281;d&#243;w walidacji</text><rect fill="#EEF2FF" height="33.9688" rx="12.5" ry="12.5" style="stroke:#4338CA;stroke-width:1.5;" width="200" x="472.5" y="512.3457"/><text fill="#000000" font-family="Arial" font-size="12" lengthAdjust="spacing" textLength="180" x="482.5" y="533.4844">Zapis nowej sali do sale.json</text><rect fill="#EEF2FF" height="33.9688" rx="12.5" ry="12.5" style="stroke:#4338CA;stroke-width:1.5;" width="135" x="505" y="581.3145"/><text fill="#000000" font-family="Arial" font-size="12" lengthAdjust="spacing" textLength="115" x="515" y="602.4531">Od&#347;wie&#380;enie tabeli</text><ellipse cx="572.5" cy="646.2832" fill="none" rx="11" ry="11" style="stroke:#222222;stroke-width:1.0;"/><ellipse cx="572.5" cy="646.2832" fill="#222222" rx="6" ry="6" style="stroke:#222222;stroke-width:1.0;"/><path d="M1399.75,353.4238 L1399.75,361.4082 L1379.75,365.4082 L1399.75,369.4082 L1399.75,377.3926 A0,0 0 0 0 1399.75,377.3926 L1842.75,377.3926 A0,0 0 0 0 1842.75,377.3926 L1842.75,363.4238 L1832.75,353.4238 L1399.75,353.4238 A0,0 0 0 0 1399.75,353.4238 " fill="#FEFFDD" style="stroke:#181818;stroke-width:0.5;"/><path d="M1832.75,353.4238 L1832.75,363.4238 L1842.75,363.4238 L1832.75,353.4238 " fill="#FEFFDD" style="stroke:#181818;stroke-width:0.5;"/><text fill="#000000" font-family="Arial" font-size="12" lengthAdjust="spacing" textLength="422" x="1405.75" y="369.5625">[Administrator] Modyfikacja danych / (pojemno&#347;&#263;, typ, przerwa min.)</text><rect fill="#EEF2FF" height="47.9375" rx="12.5" ry="12.5" style="stroke:#4338CA;stroke-width:1.5;" width="223" x="1156.75" y="341.4395"/><text fill="#000000" font-family="Arial" font-size="12" lengthAdjust="spacing" textLength="148" x="1166.75" y="362.5781">Wy&#347;wietlenie formularza</text><text fill="#000000" font-family="Arial" font-size="12" lengthAdjust="spacing" textLength="203" x="1166.75" y="376.5469">"Edycja sali" z aktualnymi danymi</text><rect fill="#EEF2FF" height="47.9375" rx="12.5" ry="12.5" style="stroke:#4338CA;stroke-width:1.5;" width="132" x="1202.25" y="409.377"/><text fill="#000000" font-family="Arial" font-size="12" lengthAdjust="spacing" textLength="112" x="1212.25" y="430.5156">Aktualizacja wpisu</text><text fill="#000000" font-family="Arial" font-size="12" lengthAdjust="spacing" textLength="69" x="1212.25" y="444.4844">w sale.json</text><rect fill="#EEF2FF" height="33.9688" rx="12.5" ry="12.5" style="stroke:#4338CA;stroke-width:1.5;" width="135" x="1200.75" y="492.3145"/><text fill="#000000" font-family="Arial" font-size="12" lengthAdjust="spacing" textLength="115" x="1210.75" y="513.4531">Od&#347;wie&#380;enie tabeli</text><ellipse cx="1268.25" cy="572.2832" fill="none" rx="11" ry="11" style="stroke:#222222;stroke-width:1.0;"/><ellipse cx="1268.25" cy="572.2832" fill="#222222" rx="6" ry="6" style="stroke:#222222;stroke-width:1.0;"/><line style="stroke:#6366F1;stroke-width:2.0;" x1="245" x2="245" y1="48.627" y2="679.2832"/><line style="stroke:#6366F1;stroke-width:2.0;" x1="1857.75" x2="1857.75" y1="48.627" y2="679.2832"/><line style="stroke:#374151;stroke-width:1.5;" x1="130.5" x2="130.5" y1="87.5957" y2="107.5957"/><polygon fill="#374151" points="126.5,97.5957,130.5,107.5957,134.5,97.5957,130.5,101.5957" style="stroke:#374151;stroke-width:1.0;"/><line style="stroke:#374151;stroke-width:1.5;" x1="870" x2="870" y1="209.502" y2="229.502"/><polygon fill="#374151" points="866,219.502,870,229.502,874,219.502,870,223.502" style="stroke:#374151;stroke-width:1.0;"/><line style="stroke:#374151;stroke-width:1.5;" x1="351" x2="351" y1="477.3457" y2="512.3457"/><polygon fill="#374151" points="347,502.3457,351,512.3457,355,502.3457,351,506.3457" style="stroke:#374151;stroke-width:1.0;"/><line style="stroke:#374151;stroke-width:1.5;" x1="351" x2="351" y1="546.3145" y2="581.3145"/><polygon fill="#374151" points="347,571.3145,351,581.3145,355,571.3145,351,575.3145" style="stroke:#374151;stroke-width:1.0;"/><line style="stroke:#374151;stroke-width:1.5;" x1="572.5" x2="572.5" y1="477.3457" y2="512.3457"/><polygon fill="#374151" points="568.5,502.3457,572.5,512.3457,576.5,502.3457,572.5,506.3457" style="stroke:#374151;stroke-width:1.0;"/><line style="stroke:#374151;stroke-width:1.5;" x1="572.5" x2="572.5" y1="546.3145" y2="581.3145"/><polygon fill="#374151" points="568.5,571.3145,572.5,581.3145,576.5,571.3145,572.5,575.3145" style="stroke:#374151;stroke-width:1.0;"/><line style="stroke:#374151;stroke-width:1.5;" x1="572.5" x2="572.5" y1="615.2832" y2="635.2832"/><polygon fill="#374151" points="568.5,625.2832,572.5,635.2832,576.5,625.2832,572.5,629.2832" style="stroke:#374151;stroke-width:1.0;"/><line style="stroke:#374151;stroke-width:1.5;" x1="395.25" x2="351" y1="421.377" y2="421.377"/><line style="stroke:#374151;stroke-width:1.5;" x1="351" x2="351" y1="421.377" y2="443.377"/><polygon fill="#374151" points="347,433.377,351,443.377,355,433.377,351,437.377" style="stroke:#374151;stroke-width:1.0;"/><line style="stroke:#374151;stroke-width:1.5;" x1="528.25" x2="572.5" y1="421.377" y2="421.377"/><line style="stroke:#374151;stroke-width:1.5;" x1="572.5" x2="572.5" y1="421.377" y2="443.377"/><polygon fill="#374151" points="568.5,433.377,572.5,443.377,576.5,433.377,572.5,437.377" style="stroke:#374151;stroke-width:1.0;"/><line style="stroke:#374151;stroke-width:1.5;" x1="461.75" x2="461.75" y1="389.377" y2="409.377"/><polygon fill="#374151" points="457.75,399.377,461.75,409.377,465.75,399.377,461.75,403.377" style="stroke:#374151;stroke-width:1.0;"/><line style="stroke:#374151;stroke-width:1.5;" x1="1268.25" x2="1268.25" y1="389.377" y2="409.377"/><polygon fill="#374151" points="1264.25,399.377,1268.25,409.377,1272.25,399.377,1268.25,403.377" style="stroke:#374151;stroke-width:1.0;"/><line style="stroke:#374151;stroke-width:1.5;" x1="1268.25" x2="1268.25" y1="457.3145" y2="492.3145"/><polygon fill="#374151" points="1264.25,482.3145,1268.25,492.3145,1272.25,482.3145,1268.25,486.3145" style="stroke:#374151;stroke-width:1.0;"/><line style="stroke:#374151;stroke-width:1.5;" x1="1268.25" x2="1268.25" y1="526.2832" y2="561.2832"/><polygon fill="#374151" points="1264.25,551.2832,1268.25,561.2832,1272.25,551.2832,1268.25,555.2832" style="stroke:#374151;stroke-width:1.0;"/><line style="stroke:#374151;stroke-width:1.5;" x1="130.5" x2="130.5" y1="155.5332" y2="160.5332"/><line style="stroke:#374151;stroke-width:1.5;" x1="130.5" x2="870" y1="160.5332" y2="160.5332"/><line style="stroke:#374151;stroke-width:1.5;" x1="870" x2="870" y1="160.5332" y2="175.5332"/><polygon fill="#374151" points="866,165.5332,870,175.5332,874,165.5332,870,169.5332" style="stroke:#374151;stroke-width:1.0;"/><line style="stroke:#374151;stroke-width:1.5;" x1="99" x2="87" y1="309.4395" y2="309.4395"/><line style="stroke:#374151;stroke-width:1.5;" x1="87" x2="87" y1="309.4395" y2="327.4395"/><line style="stroke:#374151;stroke-width:1.5;" x1="87" x2="461.75" y1="327.4395" y2="327.4395"/><line style="stroke:#374151;stroke-width:1.5;" x1="461.75" x2="461.75" y1="327.4395" y2="341.4395"/><polygon fill="#374151" points="457.75,331.4395,461.75,341.4395,465.75,331.4395,461.75,335.4395" style="stroke:#374151;stroke-width:1.0;"/><line style="stroke:#374151;stroke-width:1.5;" x1="162" x2="1268.25" y1="309.4395" y2="309.4395"/><line style="stroke:#374151;stroke-width:1.5;" x1="1268.25" x2="1268.25" y1="309.4395" y2="341.4395"/><polygon fill="#374151" points="1264.25,331.4395,1268.25,341.4395,1272.25,331.4395,1268.25,335.4395" style="stroke:#374151;stroke-width:1.0;"/><line style="stroke:#374151;stroke-width:1.5;" x1="870" x2="870" y1="277.4395" y2="282.4395"/><line style="stroke:#374151;stroke-width:1.5;" x1="870" x2="130.5" y1="282.4395" y2="282.4395"/><line style="stroke:#374151;stroke-width:1.5;" x1="130.5" x2="130.5" y1="282.4395" y2="297.4395"/><polygon fill="#374151" points="126.5,287.4395,130.5,297.4395,134.5,287.4395,130.5,291.4395" style="stroke:#374151;stroke-width:1.0;"/><text fill="#000000" font-family="Arial" font-size="12" lengthAdjust="spacing" textLength="84" x="89.5" y="59.7656">Administrator</text><text fill="#000000" font-family="Arial" font-size="12" lengthAdjust="spacing" textLength="83" x="1004.875" y="59.7656">System SalFit</text><!--SRC=[hLJBQjj05DthAoxknWQJHhQJfl6YABO48TGfE118tSMDPXoF9Ss8qQX28eiGAFs1Ra8-ezlkQlz8lwGpifFAhnHATsBkcNFFEVTg55CXXIkKnUmBAP0p2Wc6637uTVSD-e9WLXuoe2JtfmXrDsO-j1fM4Z0UeyG821rZ6YfFS3N0Y88Z6ORRwqDMKB1RbMAIiIX4JYyPKHDex-zNQewls6UcyXFqWnifKavw8XGINhckr_AyRKWX2PLBLAVTFkevEr4N4-O7d2O9s7i7LPIK8bjIjDzqx0DxlRZpvfA_pp0Id6p8zbplRQ_zmeMg-fvpvEntje272gLQWcpNFkcSR06vpqqt84-9htGxR1yUUlPEr1_7BSkwTKZ4E4kKH2NahPKOGTRnkSfG-cQ1QE1F6TI66DBQY1SGKPx2jV0BJcz4LnCCyqJH23J0O-hMEhxqYrmzBH_TcoQ2T_LfFd_C6DKBQYeAhsd83634wwVz9WomoB097yIKHbpC7sTVcw2pKMdIw6wAP6EeEreNlck0cb0ETRFSKyCtUsXO0EkY0DO4Z8MCqb3_AJZYDNFP76eqgtKjBXG5oMucwXW-hdJ-19TvJEVt6hnA0g-XpXSMuge5bST656jgG2mBAZC4mnTXo76xKEEjhsS5WOZYa2fEdqrUE6VcZZPpXJ5BW8kCbgOP455DkyISazBm_4SbyKKfKIBM7pHCADG7f-wIT3MXw_dzx87y_9v1fXiGr5lmSZHdGj908UWiStzIKcww-s_QEM5ZQ-709RbA_tduxk8fD4fgK006AjN3oVMZQOn4Vp7zNf1yp08q50lZPXNMTw1P7VxU3erEsPaL9LUcCqf7F5jDPcSkPIfb9hy1]--></g></svg>